<svg width="1280" height="720" viewBox="0 0 1280 720" fill="none" xmlns="http://www.w3.org/2000/svg">
<g clip-path="url(#clip0_10010_19148)">
<rect width="1280" height="720" fill="#F7F7F7"/>
<path d="M0.202148 0H365.604V365.367H0.202148V0Z" fill="#B30A3F"/>
<path d="M731.008 0H1097.32V365.367H731.008V0Z" fill="#B30A3F"/>
<path d="M914.621 182.684C938.849 182.684 962.084 173.06 979.215 155.93C996.347 138.8 1005.97 115.567 1005.97 91.3418C1005.97 67.1165 996.347 43.8833 979.215 26.7534C962.084 9.62347 938.849 0 914.621 0V182.684Z" fill="#D70A3F"/>
<path d="M914.621 182.684C890.151 182.684 866.683 173.06 849.38 155.93C832.078 138.8 822.357 115.567 822.357 91.3418C822.357 67.1165 832.078 43.8833 849.38 26.7534C866.683 9.62347 890.151 0 914.621 0V182.684Z" fill="#FF0F43"/>
<path d="M914.622 182.684H915.061C1015.25 182.684 1096.56 264.343 1097.32 365.368H914.622V182.684Z" fill="#D70A3F"/>
<path d="M1097.32 365.367H1462.73V731.647H1097.32V365.367Z" fill="#D70A3F"/>
<path d="M1280.02 365.367V731.647L1097.32 548.507L1280.02 365.367Z" fill="#B30A3F"/>
<path d="M731.008 365.367H1097.32V731.647H731.008V365.367Z" fill="#B30A3F"/>
<path d="M834.234 365.367H994.098V731.647H834.234V365.367Z" fill="#D70A3F"/>
<path d="M914.621 593.722C889.395 593.722 868.946 573.274 868.946 548.051C868.946 522.827 889.395 502.38 914.621 502.38C939.847 502.38 960.296 522.827 960.296 548.051C960.296 573.274 939.847 593.722 914.621 593.722Z" fill="#B30A3F"/>
<path d="M914.621 474.978C889.395 474.978 868.946 454.53 868.946 429.307C868.946 404.084 889.395 383.636 914.621 383.636C939.847 383.636 960.296 404.084 960.296 429.307C960.296 454.53 939.847 474.978 914.621 474.978Z" fill="#FF0F43"/>
<path d="M914.621 713.38C889.395 713.38 868.946 692.728 868.946 667.252C868.946 641.777 889.395 621.125 914.621 621.125C939.847 621.125 960.296 641.777 960.296 667.252C960.296 692.728 939.847 713.38 914.621 713.38Z" fill="#B30A3F"/>
<path d="M1097.32 0H1462.73V365.367H1097.32V0Z" fill="#B30A3F"/>
<path d="M1143 114.177H1462.73V274.025H1143V114.177Z" fill="#D70A3F"/>
<path d="M1097.32 215.566H1462.73V274.025H1097.32V215.566Z" fill="#D70A3F"/>
<path d="M1280.02 365.368C1255.8 365.368 1232.56 355.744 1215.43 338.614C1198.3 321.484 1188.67 298.251 1188.67 274.026C1188.67 249.8 1198.3 226.567 1215.43 209.437C1232.56 192.307 1255.8 182.684 1280.02 182.684V365.368Z" fill="#FF0F43"/>
<path d="M365.603 0H731.005V365.367H365.603V0Z" fill="#B30A3F"/>
<path d="M731.005 365.367L365.603 0H730.914L731.005 365.367Z" fill="#D70A3F"/>
<path d="M365.603 365.367H731.005V731.647H365.603V365.367Z" fill="#B30A3F"/>
<path d="M548.304 407.772C577.28 380.624 602.384 365.367 643.309 365.367H731.005V731.241H643.309C602.31 731.241 577.207 746.498 548.304 773.665V407.79V407.772Z" fill="#D70A3F"/>
<path d="M548.307 407.792V773.665C518.545 746.194 479.492 731.035 439.015 731.242H365.606V365.369H439.015C479.491 365.17 518.541 380.327 548.307 407.792V407.792Z" fill="#FF0F43"/>
<path d="M0.202148 365.367H365.604V731.647H0.202148V365.367Z" fill="#B30A3F"/>
<path d="M341.29 610.592C335.063 577.278 309.697 550.155 285.153 524.039C281.792 520.377 278.578 516.824 275.2 513.381C257.82 495.931 241.627 477.331 226.732 457.706C185.113 402.068 184.73 371.886 182.903 365.367V731.647H300.694C311.943 714.597 324.124 695.624 332.415 675.277C341.857 652.256 344.906 629.858 341.29 610.592Z" fill="#D70A3F"/>
<path d="M24.5201 610.592C30.7474 577.278 56.1129 550.155 80.6566 524.039C84.0168 520.377 87.2307 516.824 90.6092 513.381C107.989 495.931 124.181 477.331 139.076 457.706C180.694 402.068 181.078 371.886 182.904 365.367V731.647H64.9696C53.7204 714.597 41.5396 695.624 33.2488 675.277C23.9536 652.256 20.9043 629.858 24.5201 610.592Z" fill="#FF0F43"/>
<path d="M182.904 365.367L122.01 304.479V365.367H0.202832V182.684V121.795V0L122.01 121.795L182.904 182.684V365.367Z" fill="#D70A3F"/>
<path d="M182.903 182.684L243.797 121.795L365.604 0V121.795V182.684V365.367H243.797V304.479L182.903 365.367V182.684Z" fill="#FF0F43"/>
</g>
<defs>
<clipPath id="clip0_10010_19148">
<rect width="1280" height="720" fill="white"/>
</clipPath>
</defs>
</svg>
