<svg width="64" height="64" viewBox="0 0 64 64" fill="none" xmlns="http://www.w3.org/2000/svg">
<path fill-rule="evenodd" clip-rule="evenodd" d="M27.7064 7.39975C26.5366 7.8189 25.2548 8.98262 24.7922 10.0456C24.6798 10.3037 24.6289 10.6889 24.6739 10.9408C24.7111 11.1497 25.0236 11.4815 25.2615 11.565L25.4366 11.6263L25.2724 11.7407C24.8931 12.0047 24.7408 12.3392 24.8191 12.7362C24.9928 13.6161 26.3007 14.7347 27.7306 15.2262C28.1237 15.3614 28.6283 15.448 28.8096 15.4116C28.9431 15.3847 28.9467 15.2988 28.8305 14.9031C28.4309 13.5412 27.08 11.9862 26.0154 11.6624C25.774 11.5891 25.773 11.5881 25.8936 11.546C26.1199 11.467 26.4602 11.2081 26.7673 10.8813C27.5281 10.0715 28.187 8.63769 28.2551 7.64324L28.2793 7.29114L28.1414 7.29225C28.0655 7.29284 27.8698 7.34124 27.7064 7.39975ZM35.7328 7.49668C35.7328 8.1369 36.0729 9.14475 36.5852 10.0226C36.9616 10.6677 37.7469 11.4593 38.0887 11.5383C38.2345 11.5719 38.2461 11.6444 38.1056 11.6444C38.0494 11.6444 37.8977 11.6895 37.7686 11.7447C36.9499 12.0946 35.9364 13.1842 35.4134 14.2768C35.2341 14.6513 35.0836 15.1226 35.0836 15.3096V15.4115L35.4792 15.3894C35.9555 15.3628 36.3705 15.2329 37.0109 14.9102C37.7415 14.5421 38.2609 14.1429 38.7253 13.5927C39.3285 12.878 39.352 12.1693 38.7857 11.7751L38.575 11.6284L38.7238 11.5746C38.9125 11.5063 39.043 11.4036 39.1996 11.2002C39.3167 11.0479 39.3236 11.0182 39.3236 10.6672C39.3236 10.324 39.3121 10.2713 39.173 9.97767C38.8406 9.27603 38.2398 8.59676 37.4479 8.02743C36.8645 7.60794 36.1771 7.29114 35.8503 7.29114C35.737 7.29114 35.7328 7.29839 35.7328 7.49668ZM22.6376 8.08031C21.9413 8.3986 20.8836 9.66065 20.4731 10.6627C20.0788 11.6257 20.0682 12.3309 20.4426 12.698C20.5827 12.8354 20.8809 12.9654 21.0583 12.9665L21.2135 12.9674L21.0919 13.0751C20.796 13.3369 20.7054 13.8438 20.8864 14.225C21.1433 14.7661 22.0527 15.3386 23.0949 15.6155C23.9105 15.8321 24.7485 15.8795 25.2788 15.7388C25.4622 15.6901 25.474 15.6789 25.4536 15.572C25.4068 15.3258 25.1145 14.8973 24.6779 14.435C23.7919 13.4968 22.591 12.8394 21.7633 12.8394H21.5208L21.6609 12.722C22.2364 12.2399 22.7597 11.0593 22.9359 9.84562C23.0394 9.13263 22.9673 8.01326 22.8182 8.01834C22.7914 8.01928 22.7101 8.04715 22.6376 8.08031ZM41.0871 8.17288C41.0011 8.46698 40.9909 9.36041 41.0677 9.87627C41.1504 10.4324 41.3671 11.2089 41.5413 11.5734C41.8054 12.1259 42.1322 12.5918 42.3729 12.7586L42.4884 12.8388L42.245 12.8397C41.6128 12.8421 40.6992 13.2446 39.9322 13.8587C39.3333 14.3383 38.6129 15.2225 38.5495 15.5559C38.5254 15.6826 38.5307 15.6882 38.7213 15.7388C39.6368 15.9817 41.2032 15.6782 42.2488 15.0555C42.6208 14.8339 43.0391 14.423 43.1374 14.1826C43.2872 13.8162 43.1843 13.3195 42.9081 13.0751L42.7865 12.9674L42.9215 12.9655C43.2336 12.9612 43.5901 12.7353 43.7256 12.4559C44.0755 11.7344 43.5279 10.2165 42.4956 9.04693C42.0311 8.52067 41.5234 8.11133 41.2437 8.03759C41.1448 8.01151 41.1307 8.02367 41.0871 8.17288ZM46.078 10.3515C45.7923 10.8253 45.6233 11.6936 45.6228 12.69C45.6223 13.6568 45.8026 14.4705 46.1245 14.9538C46.2098 15.0819 46.2664 15.1865 46.2504 15.1862C46.2344 15.186 46.1316 15.1571 46.022 15.1222C45.5992 14.9873 44.7464 15.0711 44.0099 15.3199C43.5162 15.4867 42.7733 15.875 42.3987 16.1619C42.098 16.3923 41.7784 16.7369 41.7784 16.8307C41.7784 16.9138 42.3316 17.1763 42.7116 17.2734C44.252 17.6675 46.1033 17.3619 46.607 16.6305C46.7789 16.3808 46.8246 16.1724 46.7689 15.8906C46.744 15.7645 46.6861 15.6111 46.6403 15.5498C46.5944 15.4885 46.564 15.4307 46.5728 15.4215C46.5815 15.4123 46.6586 15.4214 46.7441 15.4417C47.1549 15.5391 47.5954 15.2909 47.7606 14.8688C48.0826 14.0456 47.7493 12.3659 47.0233 11.1536C46.7511 10.699 46.5638 10.4533 46.3545 10.2764L46.2013 10.1469L46.078 10.3515ZM17.5027 10.4181C17.267 10.6601 16.9172 11.1942 16.7136 11.623C16.2724 12.5519 16.0281 13.7391 16.1339 14.4398C16.222 15.0241 16.4344 15.3075 16.8736 15.4273C17.0601 15.4782 17.1441 15.4763 17.3572 15.4165C17.4097 15.4017 17.4019 15.4417 17.3173 15.6217C17.1208 16.0393 17.2033 16.4961 17.5296 16.7974C18.1979 17.4146 19.8626 17.6258 21.2885 17.2743C21.6947 17.1741 22.2217 16.9153 22.2217 16.8159C22.2217 16.7204 21.7646 16.2647 21.4508 16.0472C20.8405 15.6244 19.9421 15.2521 19.208 15.1178C18.7636 15.0366 18.1122 15.0568 17.846 15.16L17.6698 15.2284L17.7904 15.084C18.0632 14.757 18.2974 13.9955 18.3689 13.2021C18.4221 12.6123 18.36 11.7528 18.2225 11.1772C18.1135 10.7204 17.8941 10.2227 17.7928 10.2022C17.7552 10.1946 17.6287 10.2887 17.5027 10.4181ZM13.3682 13.739C12.9169 14.3717 12.6038 15.7416 12.6572 16.8499C12.7078 17.8987 12.9912 18.6398 13.4374 18.8899C13.6273 18.9963 14.0555 18.9827 14.2463 18.8643L14.4004 18.7686L14.3652 18.8876C14.3459 18.9529 14.3312 19.1216 14.3327 19.2625C14.3377 19.732 14.5614 20.0222 15.049 20.1912C15.3865 20.3082 16.3989 20.3172 16.8659 20.2073C17.8799 19.9686 19.0168 19.3892 19.318 18.9576L19.3965 18.845L19.2979 18.761C19.0221 18.5261 18.385 18.267 17.7387 18.127C16.6668 17.8948 15.3192 18.0241 14.7768 18.4113C14.651 18.5012 14.6291 18.5069 14.6533 18.4434C14.7952 18.072 14.8166 17.9179 14.8155 17.2779C14.8142 16.5311 14.7554 16.1645 14.5247 15.4652C14.2872 14.7453 14.0062 14.2037 13.672 13.8213L13.4724 13.593L13.3682 13.739ZM50.3554 13.7869C49.9126 14.2742 49.489 15.2182 49.2783 16.1874C49.1151 16.9382 49.1362 17.9437 49.3238 18.3521C49.3651 18.4421 49.3905 18.5156 49.3801 18.5156C49.3698 18.5156 49.2939 18.4671 49.2114 18.4078C49.0163 18.2676 48.5386 18.1098 48.1098 18.0439C47.427 17.9388 46.2714 18.0603 45.5772 18.3101C45.1444 18.4658 44.6185 18.7718 44.6185 18.8679C44.6185 18.9984 45.2513 19.4784 45.7293 19.7104C46.5569 20.1121 47.2468 20.2815 48.0673 20.2846C48.722 20.287 49.0116 20.2238 49.3049 20.0146C49.6146 19.7936 49.7729 19.2758 49.6362 18.9314C49.6013 18.8435 49.5799 18.7717 49.5886 18.7717C49.5973 18.7717 49.6709 18.8129 49.752 18.8632C49.9613 18.9931 50.3896 18.996 50.5849 18.8688C50.9126 18.6555 51.1299 18.2519 51.2595 17.6156C51.3597 17.1239 51.3596 16.0425 51.2595 15.5068C51.1148 14.7334 50.8647 14.0403 50.6157 13.7229L50.5221 13.6035L50.3554 13.7869ZM10.0575 18.2793C9.85005 18.7583 9.83179 20.1872 10.0223 21.0336C10.2197 21.9103 10.5289 22.569 10.9189 22.944C11.3018 23.3121 11.7393 23.3369 12.1422 23.0134L12.3216 22.8694V23.0986C12.3216 23.5095 12.4874 23.7974 12.8085 23.9442C13.6641 24.3352 15.4274 23.6198 16.5616 22.4214C16.9219 22.0407 17.1922 21.621 17.111 21.5682C16.6742 21.2843 15.2493 21.2533 14.2905 21.5069C13.6229 21.6836 13.0134 21.9881 12.6727 22.3152L12.4636 22.5159L12.4586 22.0842C12.4508 21.4125 12.2308 20.7246 11.761 19.9027C11.3468 19.178 10.8438 18.5873 10.385 18.2866C10.1722 18.1472 10.1153 18.1459 10.0575 18.2793ZM53.5443 18.3308C52.9203 18.7698 52.1573 19.8541 51.8077 20.7989C51.6018 21.3551 51.541 21.6559 51.54 22.1219L51.5392 22.5487L51.3273 22.3263C51.1747 22.1662 50.9982 22.0448 50.697 21.893C49.8988 21.4905 49.4247 21.376 48.4325 21.346C47.6961 21.3237 47.3464 21.366 46.997 21.5196L46.8442 21.5867L46.9566 21.804C47.3353 22.536 48.5661 23.4812 49.6204 23.8498C50.5658 24.1804 51.2068 24.1221 51.5128 23.6778C51.6474 23.4823 51.7399 23.1329 51.7006 22.9682L51.6737 22.8556L51.8138 22.985C52.2341 23.3732 52.7957 23.3189 53.1902 22.852C53.5158 22.4666 53.8356 21.7126 53.9976 20.9483C54.0798 20.5603 54.0926 20.3856 54.0926 19.6466C54.0926 18.8772 54.0834 18.7625 54.0001 18.4836C53.8906 18.1172 53.8617 18.1075 53.5443 18.3308ZM20.8827 21.7319C20.3921 21.8724 20.0674 22.1703 19.9003 22.6332C19.7639 23.0109 19.7728 23.8407 19.923 24.7528C20.1546 26.1597 20.6431 28.6347 20.8021 29.2066C21.628 32.1783 23.1672 34.0651 25.7462 35.2673L26.1262 35.4444L26.3985 36.0844C27.3287 38.2711 28.5619 39.9357 29.9114 40.8265C30.1744 41.0001 30.7518 41.2828 30.9857 41.3524C31.0861 41.3823 31.1737 41.4106 31.1805 41.4154C31.1872 41.4202 31.095 41.5272 30.9756 41.6531C30.7166 41.9263 30.5905 42.1841 30.531 42.5621C30.4465 43.098 30.679 43.6879 31.1072 44.0242L31.3103 44.1837L31.3101 44.6973C31.3098 45.6688 31.1366 47.2214 30.9012 48.3632C30.2928 51.3136 29.1632 53.4154 27.7195 54.2833L27.476 54.4296L26.3399 54.4512C25.2629 54.4715 25.1931 54.4777 24.9962 54.5713C24.6553 54.7333 24.4032 55.0785 24.3493 55.457C24.2907 55.868 24.5614 56.3754 24.9586 56.5992L25.1227 56.6916L31.8967 56.7028C39.5343 56.7154 38.9459 56.7405 39.3057 56.3864C39.8756 55.8257 39.7131 54.9192 38.9788 54.5621C38.8124 54.4812 38.699 54.4714 37.7007 54.4515C36.4859 54.4272 36.5737 54.4465 36.0777 54.0958C34.2641 52.8134 32.9101 49.0628 32.7834 44.9708L32.7588 44.1758L33.0003 43.9252C33.3659 43.5458 33.5318 43.094 33.4797 42.6193C33.4413 42.2685 33.2307 41.8327 32.9934 41.613C32.8865 41.514 32.8063 41.4259 32.8154 41.4174C32.8244 41.4088 32.9322 41.3713 33.0549 41.3341C33.5944 41.1704 34.3944 40.6658 34.9416 40.1442C36.015 39.121 36.859 37.827 37.6212 36.0357L37.8753 35.4387L38.2552 35.2657C40.3939 34.2919 41.9035 32.698 42.7682 30.5005C43.1393 29.5577 43.3065 28.9026 43.6814 26.9233C44.0503 24.9752 44.1683 24.2353 44.1995 23.6728C44.255 22.673 43.9682 22.0606 43.3202 21.7954C43.0419 21.6815 42.27 21.6374 41.8888 21.7137C41.2622 21.839 40.5832 22.1172 39.9492 22.5081C39.7797 22.6126 39.6307 22.6981 39.6179 22.6981C39.6051 22.6981 39.5832 22.5301 39.5691 22.3247C39.5551 22.1193 39.5344 21.8888 39.5231 21.8125L39.5025 21.6738H32H24.4975L24.4766 21.8125C24.4651 21.8888 24.4474 22.1091 24.4373 22.3021C24.4272 22.495 24.4082 22.6712 24.395 22.6936C24.3819 22.716 24.2755 22.6665 24.1586 22.5836C23.6657 22.2341 22.7848 21.8539 22.1912 21.7345C21.8276 21.6613 21.1341 21.6599 20.8827 21.7319ZM21.8565 22.9986C22.4463 23.0965 23.1135 23.4089 23.8569 23.9352L24.3112 24.2569L24.3588 25.6008C24.4505 28.1968 24.6574 29.946 25.1235 32.0661C25.1992 32.4106 25.4871 33.5202 25.5323 33.6418C25.6107 33.8528 24.438 33.0011 23.9497 32.4925C23.3626 31.881 23.0067 31.3561 22.6011 30.5036C22.2489 29.7634 21.946 28.7741 21.7205 27.6275C21.4545 26.2755 21.1766 24.7499 21.1063 24.2559C21.0306 23.7241 21.0252 23.1098 21.0957 23.0488C21.2026 22.9566 21.4891 22.9376 21.8565 22.9986ZM42.9083 23.0709C42.9899 23.1833 42.9424 24.0432 42.8144 24.768C42.5453 26.2927 42.1695 28.2026 42.0436 28.6859C41.5381 30.6256 40.7055 32.0244 39.4566 33.0317C39.1524 33.2771 38.4904 33.7219 38.4666 33.6969C38.4601 33.69 38.4999 33.5316 38.5549 33.3447C38.6099 33.1579 38.7263 32.6977 38.8135 32.3221C39.3413 30.0494 39.6191 27.6667 39.6334 25.2897L39.6392 24.3177L39.7857 24.1962C40.4516 23.6442 41.5125 23.095 42.1027 22.9966C42.4352 22.9412 42.8413 22.9787 42.9083 23.0709ZM8.00725 23.4521C7.95731 23.5046 7.97958 24.1791 8.04284 24.5299C8.179 25.2849 8.62629 26.3683 9.038 26.9404C9.51916 27.609 10.0188 27.9903 10.4138 27.9903C10.6743 27.9903 11.0056 27.8078 11.1751 27.5708C11.3 27.3963 11.3073 27.3923 11.3073 27.4978C11.3073 27.8808 11.7896 28.3305 12.2015 28.3314C12.5223 28.3322 13.0422 28.1124 13.5474 27.7624C14.2434 27.2803 15.0396 26.3572 15.3966 25.6186C15.5053 25.3939 15.6641 24.8767 15.6342 24.8452C15.5763 24.7843 15.0311 24.7856 14.6928 24.8474C13.3733 25.0885 11.914 25.9817 11.4614 26.8252C11.3947 26.9496 11.3357 27.0513 11.3303 27.0513C11.3248 27.0513 11.3181 26.9854 11.3152 26.9048C11.3025 26.5511 10.9477 25.7792 10.5803 25.3063C9.91411 24.4486 8.96926 23.694 8.30754 23.4912C8.05773 23.4146 8.0445 23.4129 8.00725 23.4521ZM55.6547 23.5041C55.3494 23.6079 55.1237 23.7336 54.7418 24.0125C53.6568 24.8047 52.788 26.0057 52.6979 26.8379L52.6725 27.0727L52.5453 26.8379C52.1692 26.1438 51.1804 25.4321 50.0543 25.045C49.4453 24.8357 48.7318 24.7348 48.4406 24.8168C48.3603 24.8395 48.351 24.8618 48.3738 24.9763C48.516 25.691 49.3753 26.9227 50.1722 27.5544C51.1612 28.3383 51.9738 28.5239 52.4085 28.0653C52.5579 27.9078 52.6905 27.6348 52.6919 27.4824C52.6927 27.3897 52.7041 27.3963 52.8109 27.5515C53.0106 27.8415 53.2717 27.9903 53.5808 27.9903C54.4324 27.9903 55.5945 26.3198 55.9413 24.5973C56.0162 24.2248 56.0453 23.6285 55.9952 23.4912C55.9648 23.4079 55.9343 23.409 55.6547 23.5041ZM14.6042 28.445C14.2804 28.5257 13.5909 28.8939 13.1645 29.2138C12.3723 29.8081 11.657 30.7199 11.4555 31.3921C11.368 31.6841 11.3565 31.7024 11.3305 31.5911C11.2517 31.2537 10.6966 30.5846 10.1381 30.1539C9.41538 29.5965 8.30771 29.1222 7.67353 29.0986C7.25347 29.0829 7.27579 29.069 7.30492 29.3297C7.35251 29.7556 7.7133 30.5344 8.1332 31.1176C8.41117 31.5037 8.93157 32.0629 9.23669 32.3034C9.55986 32.5582 10.0004 32.7936 10.2711 32.8562C10.7544 32.9679 11.1666 32.7279 11.3462 32.2303L11.416 32.0368L11.4676 32.1677C11.5377 32.3457 11.8279 32.6192 12.0162 32.6845C12.2255 32.7572 12.5115 32.715 12.7946 32.5697C13.0702 32.4284 13.6517 31.8633 13.9445 31.4523C14.5246 30.6379 14.9995 29.3834 14.9995 28.665C14.9995 28.3327 15.0165 28.3423 14.6042 28.445ZM49.0005 28.6647C49.0005 29.5927 49.6851 31.1213 50.4788 31.9659C51.2303 32.7654 51.8299 32.9298 52.3071 32.4672C52.4027 32.3745 52.5041 32.2397 52.5325 32.1677L52.584 32.0368L52.6575 32.2404C52.7605 32.5257 52.9871 32.7559 53.2513 32.8435C53.4344 32.9042 53.5021 32.9074 53.6952 32.8648C54.7422 32.6339 56.1608 31.086 56.6053 29.6899C56.7439 29.2544 56.7434 29.1166 56.6028 29.0884C56.2915 29.0258 55.4699 29.2453 54.8277 29.5626C53.8299 30.0556 52.9062 30.9113 52.6911 31.5415L52.6371 31.6998L52.5482 31.4048C52.4442 31.0598 52.3158 30.8164 52.0148 30.3932C51.3608 29.4741 50.0374 28.5441 49.173 28.3963L49.0005 28.3668V28.6647ZM14.9061 32.1386C14.4492 32.3993 13.8097 33.0546 13.3687 33.7138C12.9083 34.4019 12.6149 35.1608 12.5715 35.7755L12.5448 36.1559L12.3888 35.9554C12.0726 35.549 11.2951 35.0933 10.5359 34.8696C9.89873 34.6819 9.5586 34.63 8.95397 34.6283C8.30081 34.6265 7.98019 34.6933 7.98019 34.8313C7.98019 35.1451 8.85172 36.1873 9.55195 36.7106C10.4101 37.3521 11.4806 37.7139 12.0376 37.5509C12.3726 37.4529 12.6467 37.0582 12.6553 36.6613L12.6599 36.4493L12.7443 36.5812C12.7908 36.6536 12.9197 36.7621 13.0308 36.8222C13.2779 36.9558 13.6461 36.9691 13.8557 36.8522C14.5886 36.4431 15.2365 34.9668 15.3665 33.41C15.42 32.7679 15.3228 31.9999 15.1883 32.0032C15.1625 32.0038 15.0356 32.0647 14.9061 32.1386ZM48.6895 32.2474C48.6035 32.5494 48.5937 33.369 48.6704 33.8372C48.965 35.6346 49.757 36.9507 50.5453 36.9525C50.7368 36.953 51.0392 36.8142 51.1881 36.6576L51.3354 36.5027L51.3392 36.6566C51.3493 37.0594 51.5876 37.4121 51.9308 37.532C52.3368 37.6739 53.034 37.5347 53.7071 37.1773C54.6077 36.6991 55.5594 35.8024 55.9168 35.0953C56.0655 34.8012 56.0547 34.7528 55.8271 34.6925C55.1073 34.5015 53.7555 34.6807 52.8695 35.0846C52.2406 35.3713 51.6851 35.7744 51.5159 36.0671L51.4462 36.1877L51.4254 35.7913C51.4011 35.3291 51.3121 35.0221 51.0259 34.4134C50.5874 33.4807 49.7118 32.4662 49.0329 32.1044C48.9273 32.0481 48.8226 32.002 48.8001 32.002C48.7777 32.002 48.7279 32.1125 48.6895 32.2474ZM15.9974 35.7295C15.5216 36.2471 15.0353 37.2321 14.8113 38.1318C14.6804 38.6573 14.6364 39.5768 14.7255 39.9231L14.7815 40.1406L14.5355 39.9795C13.5341 39.3239 11.4306 39.2909 10.2644 39.9125C10.1494 39.9738 10.0444 40.0424 10.0312 40.0649C9.98808 40.1382 10.4927 40.6555 10.828 40.8817C11.2061 41.1369 11.7687 41.4198 12.2023 41.573C12.786 41.7791 13.1194 41.838 13.7011 41.8378C14.1887 41.8376 14.2723 41.8265 14.4622 41.7371C14.6924 41.6287 14.8952 41.4173 14.9843 41.1931C15.0493 41.0295 15.0572 40.7189 15.0005 40.5619C14.9551 40.4363 14.9824 40.4229 15.0849 40.5205C15.1242 40.5579 15.2261 40.6147 15.3113 40.6466C15.8552 40.8507 16.3562 40.5317 16.6195 39.8137C16.8562 39.1679 16.9209 38.7701 16.9216 37.9557C16.9223 37.1841 16.8582 36.6646 16.6977 36.1419C16.5996 35.8221 16.3935 35.4163 16.3292 35.4163C16.305 35.4163 16.1557 35.5573 15.9974 35.7295ZM47.5903 35.4697C47.2805 35.8764 47.0045 37.4006 47.0706 38.3398C47.1532 39.5132 47.5484 40.4464 48.0477 40.647C48.2916 40.745 48.6291 40.7098 48.8378 40.5645L48.9908 40.458L48.9698 40.7325C48.9329 41.216 49.1024 41.5179 49.528 41.7267C49.7325 41.827 49.797 41.8363 50.2989 41.8371C50.881 41.838 51.2125 41.7797 51.7978 41.573C52.2198 41.4239 52.7807 41.1432 53.1355 40.9034C53.4856 40.6668 54.014 40.1417 53.9727 40.0714C53.9275 39.9945 53.5043 39.7849 53.1985 39.688C52.4699 39.4572 51.3056 39.4008 50.5704 39.5608C50.0668 39.6703 49.7251 39.8016 49.4344 39.9972L49.2147 40.145L49.275 39.9287C49.35 39.6594 49.3238 38.7466 49.2278 38.2912C49.0992 37.6804 48.6251 36.5544 48.314 36.1205C48.1077 35.8328 47.7299 35.4163 47.6752 35.4163C47.6509 35.4163 47.6127 35.4404 47.5903 35.4697ZM18.1288 38.5948C17.3848 39.6846 17.2406 42.367 17.8757 43.3051L17.9553 43.4227L17.6642 43.3173C17.4061 43.2239 17.3063 43.212 16.7848 43.213C16.1144 43.2142 15.8018 43.2713 15.0753 43.5249C14.3616 43.7741 13.7383 44.1341 13.4208 44.4807L13.2825 44.6316L13.3802 44.7168C13.5172 44.8362 13.8823 45.0386 14.1523 45.1447C14.9479 45.4575 16.2684 45.5803 17.0282 45.4122C17.2402 45.3652 17.5168 45.2858 17.6428 45.2355C17.9134 45.1276 18.2074 44.8694 18.3045 44.6542C18.4003 44.4418 18.3962 44.0975 18.2951 43.857L18.2124 43.6605L18.3341 43.7051C18.5475 43.7834 18.9627 43.7215 19.153 43.5831C19.3959 43.4065 19.5693 43.0185 19.6271 42.5223C19.7715 41.2804 19.2151 39.4006 18.4554 38.5639C18.3755 38.4759 18.2987 38.4038 18.2847 38.4038C18.2706 38.4038 18.2005 38.4897 18.1288 38.5948ZM45.5251 38.5852C45.284 38.8607 45.1169 39.1355 44.9229 39.5752C44.1854 41.2465 44.1545 43.079 44.8553 43.5893C45.0132 43.7043 45.0626 43.7173 45.3421 43.7173C45.5132 43.7173 45.685 43.7009 45.7237 43.6809C45.7867 43.6484 45.785 43.6666 45.7083 43.849C45.6038 44.0976 45.5983 44.4387 45.6955 44.6542C45.7337 44.7387 45.8461 44.883 45.9453 44.9749C46.7086 45.6816 49.014 45.6571 50.2989 44.9286C50.4216 44.859 50.5661 44.7637 50.6198 44.7168L50.7175 44.6316L50.5815 44.484C50.2777 44.1543 49.671 43.7941 49.0144 43.5537C48.3166 43.2983 47.8809 43.2159 47.2153 43.2137C46.6923 43.212 46.5946 43.2235 46.3358 43.3172L46.0448 43.4227L46.1223 43.3082C46.7464 42.3863 46.6264 39.8356 45.903 38.6461C45.8219 38.5128 45.7395 38.4038 45.7197 38.4038C45.7 38.4038 45.6124 38.4855 45.5251 38.5852ZM20.7852 40.9752C20.3472 42.2216 20.7764 44.6346 21.5914 45.5094L21.7957 45.7286L21.6131 45.6977C21.4066 45.6627 20.9539 45.7116 20.608 45.8063C19.504 46.1086 18.0597 47.1813 17.6629 47.9937C17.6263 48.0689 17.5962 48.1393 17.5962 48.1503C17.5962 48.1906 18.1119 48.3441 18.3952 48.388C18.9141 48.4685 19.5121 48.4332 20.2522 48.2782C21.2309 48.0733 22.1017 47.5641 22.3522 47.0504C22.5135 46.7193 22.4356 46.2256 22.1794 45.9562C22.1005 45.8732 22.1013 45.8726 22.2956 45.8726C22.5635 45.8726 22.8957 45.6918 23.0454 45.4645C23.2218 45.1966 23.266 44.8334 23.1815 44.3472C23.144 44.132 23.0597 43.7897 22.994 43.5866C22.6803 42.6166 21.8204 41.3751 21.1557 40.9325C21.0411 40.8562 20.9252 40.7938 20.8981 40.7938C20.871 40.7938 20.8202 40.8755 20.7852 40.9752ZM42.8091 40.9578C42.3095 41.2997 41.6626 42.1361 41.2732 42.9438C40.7663 43.9955 40.641 44.988 40.9548 45.4647C41.1064 45.6949 41.4363 45.8726 41.7121 45.8726H41.9154L41.8266 45.9596C41.5955 46.1861 41.4983 46.587 41.5959 46.9116C41.8034 47.6014 42.8877 48.1893 44.2903 48.3724C44.8494 48.4453 45.194 48.4491 45.6198 48.387C45.901 48.3461 46.3392 48.2167 46.3948 48.1582C46.4442 48.1063 46.1111 47.6213 45.8055 47.3001C45.4527 46.9292 44.7595 46.4129 44.2737 46.1591C43.6543 45.8356 42.8394 45.6338 42.4073 45.6971L42.2044 45.7267L42.3902 45.5316C42.7284 45.1762 43.0577 44.4508 43.2198 43.7037C43.3998 42.8742 43.4371 41.9631 43.3164 41.3487C43.2585 41.0545 43.1569 40.7938 43.0999 40.7938C43.0718 40.7938 42.9409 40.8676 42.8091 40.9578ZM23.9258 42.7523C23.9258 43.4015 24.1535 44.3027 24.5038 45.0404C24.8519 45.7732 25.4745 46.5536 25.8936 46.7822L26.0965 46.8929L25.9507 46.8949C25.5285 46.9006 24.7521 47.3389 24.1155 47.9309C23.8126 48.2125 23.3074 48.8324 23.0891 49.1904C22.8785 49.5358 22.6753 50.002 22.6445 50.2105L22.6185 50.3872L22.819 50.4162C23.2279 50.4754 24.0216 50.3014 24.7455 49.994C26.121 49.4097 27.0565 48.4288 26.9501 47.6822C26.9197 47.4688 26.7325 47.1832 26.5283 47.0384L26.3955 46.9443L26.551 46.9003C27.6314 46.5943 27.4492 45.2132 26.1401 43.7872C25.7665 43.3803 25.2825 42.9683 24.9042 42.7351C24.5833 42.5373 24.1909 42.3729 24.0398 42.3729H23.9258V42.7523ZM39.5996 42.4748C39.0589 42.6881 38.4321 43.1628 37.8392 43.8078C36.7997 44.9388 36.4431 46.156 37.0058 46.6529C37.1477 46.7782 37.3863 46.8969 37.4962 46.8969C37.5529 46.8969 37.5992 46.9161 37.5992 46.9395C37.5992 46.963 37.5806 46.9822 37.5578 46.9822C37.4587 46.9822 37.156 47.3379 37.0951 47.5258C37.0112 47.7849 37.0145 47.9141 37.1121 48.1863C37.3361 48.8106 38.1803 49.5337 39.2015 49.976C39.9025 50.2796 40.7479 50.4683 41.164 50.4139L41.3813 50.3855L41.3553 50.2144C41.3205 49.9856 41.1052 49.5035 40.8705 49.1286C40.6524 48.7805 40.1735 48.1924 39.9086 47.9475C39.2591 47.3471 38.4584 46.8987 38.0312 46.8961C37.9088 46.8954 37.9127 46.89 38.1267 46.7663C39.0981 46.2045 40.1085 44.1187 40.0657 42.7635C40.0543 42.4043 40.0512 42.394 39.9525 42.3849C39.8967 42.3797 39.7379 42.4201 39.5996 42.4748Z" fill="white"/>
</svg>
