<svg width="16" height="16" viewBox="0 0 16 16" fill="none" xmlns="http://www.w3.org/2000/svg">
<path fill-rule="evenodd" clip-rule="evenodd" d="M2 1V2H4.5V5.5C4.5 7.433 6.067 9 8 9C9.933 9 11.5 7.433 11.5 5.5V2H14V1H2ZM5.5 2H10.5V3.5H5.5V2ZM5.5 5.5C5.5 6.88071 6.61929 8 8 8C9.38071 8 10.5 6.88071 10.5 5.5V4.5H5.5V5.5ZM13 15H12V13.5C11.9983 12.12 10.88 11.0017 9.5 11H6.5C5.11997 11.0017 4.00165 12.12 4 13.5V15H3V13.5C3.0022 11.5679 4.56792 10.0022 6.5 10H9.5C11.4321 10.0022 12.9978 11.5679 13 13.5V15ZM2 3.5C2 3.22386 2.22386 3 2.5 3C2.77614 3 3 3.22386 3 3.5V8H2V3.5Z" fill="#B390EC"/>
</svg>
