<svg width="24" height="24" viewBox="0 0 24 24" fill="none" xmlns="http://www.w3.org/2000/svg">
<g id="eye-off">
<path id="Union" fill-rule="evenodd" clip-rule="evenodd" d="M3.35358 2.64645C3.15831 2.45118 2.84173 2.45118 2.64647 2.64645C2.45121 2.84171 2.45121 3.15829 2.64647 3.35355L20.6465 21.3536C20.8417 21.5488 21.1583 21.5488 21.3536 21.3536C21.5488 21.1583 21.5488 20.8417 21.3536 20.6464L18.1721 17.465C20.6815 15.6353 22.0128 13.1299 22.3608 12.4102C22.4866 12.1502 22.4874 11.8516 22.3611 11.5903C22.0759 11.0004 21.1442 9.24045 19.4637 7.62206C17.778 5.99874 15.3182 4.5 12 4.5C9.92212 4.5 8.17624 5.08855 6.74622 5.93105C6.72355 5.94441 6.70232 5.95928 6.68258 5.97545L3.35358 2.64645ZM7.40979 6.70266L9.90396 9.19683C10.4881 8.75945 11.2142 8.5 12 8.5C13.933 8.5 15.5 10.067 15.5 12C15.5 12.7858 15.2406 13.5119 14.8032 14.0961L17.4556 16.7484C19.8204 15.0773 21.1017 12.7106 21.4484 12C21.1752 11.44 20.308 9.82351 18.77 8.34236C17.2129 6.84288 14.9892 5.5 12 5.5C10.1952 5.5 8.67372 5.98879 7.40979 6.70266ZM14.0859 13.3787C14.3478 12.9835 14.5 12.5099 14.5 12C14.5 10.6193 13.3807 9.5 12 9.5C11.4901 9.5 11.0165 9.65224 10.6213 9.91415L14.0859 13.3787ZM4.32477 8.54095C4.53474 8.7203 4.55956 9.03591 4.38021 9.24588C3.36502 10.4344 2.76876 11.555 2.55169 12C2.82488 12.56 3.69205 14.1765 5.23006 15.6576C6.7871 17.1571 9.01089 18.5 12 18.5C12.6732 18.5 13.3059 18.432 13.8996 18.3103C14.1701 18.2549 14.4344 18.4292 14.4898 18.6997C14.5453 18.9702 14.371 19.2345 14.1004 19.2899C13.4411 19.4251 12.7411 19.5 12 19.5C8.6818 19.5 6.22202 18.0013 4.53639 16.3779C2.85588 14.7596 1.92418 12.9996 1.63896 12.4097C1.51176 12.1466 1.51506 11.8464 1.64002 11.5881C1.87038 11.112 2.51313 9.89205 3.61984 8.59639C3.79919 8.38642 4.11479 8.3616 4.32477 8.54095Z" fill="#AFB9D2"/>
</g>
</svg>
