<svg width="20" height="20" viewBox="0 0 20 20" fill="none" xmlns="http://www.w3.org/2000/svg">
<path fill-rule="evenodd" clip-rule="evenodd" d="M10.3812 1.38121C10.1541 1.20171 9.8334 1.20171 9.60625 1.38121L0.625 8.38746L1.4 9.37496L2.5 8.51246V16.25C2.5 16.9403 3.05964 17.5 3.75 17.5H16.25C16.9404 17.5 17.5 16.9403 17.5 16.25V8.51871L18.6 9.37496L19.375 8.39371L10.3812 1.38121ZM11.25 16.25H8.75V11.25H11.25V16.25ZM12.5 16.25V11.25C12.5 10.5596 11.9404 9.99996 11.25 9.99996H8.75C8.05964 9.99996 7.5 10.5596 7.5 11.25V16.25H3.75V7.53746L10 2.66871L16.25 7.54371V16.25H12.5Z" fill="#D70A3F"/>
</svg>
