<svg width="67" height="43" viewBox="0 0 67 43" fill="none" xmlns="http://www.w3.org/2000/svg">
<path d="M35.2598 42.2822L34.3708 41.3919C34.1259 41.1456 33.8011 41.0116 33.4561 41.0116H15.4529C13.4165 41.0116 11.7603 39.3514 11.7603 37.3109V26.6524H40.8752L42.7073 27.559L44.5124 26.6524H58.7607V37.3109C58.7607 39.3514 57.1045 41.0116 55.0681 41.0116H37.0635C36.7185 41.0116 36.3924 41.1456 36.1488 41.3919L35.2598 42.2822ZM12.79 27.6862V37.3095C12.79 38.7803 13.9834 39.9765 15.4502 39.9765H33.4534C34.0758 39.9765 34.659 40.2201 35.0974 40.6612L35.2571 40.8195L35.4168 40.6598C35.8552 40.2187 36.4411 39.9765 37.0608 39.9765H55.0653C56.5321 39.9765 57.7256 38.7803 57.7256 37.3095V27.6862H12.79Z" fill="white"/>
<path d="M20.0035 35.7941C19.4596 35.7941 18.9752 35.6723 18.5489 35.4301C18.12 35.1879 17.7858 34.855 17.5422 34.4288C17.2987 34.0025 17.1755 33.5249 17.1755 32.9945C17.1755 32.464 17.2987 31.9891 17.5422 31.5615C17.7858 31.1339 18.12 30.8024 18.5489 30.5589C18.9765 30.3167 19.4596 30.1962 20.0035 30.1962C20.4961 30.1962 20.925 30.2882 21.289 30.4723C21.653 30.6563 21.9466 30.8958 22.1631 31.1948C22.3837 31.4912 22.542 31.8159 22.6421 32.1623H21.7207C21.5989 31.8497 21.3959 31.5859 21.1063 31.3694C20.8181 31.1515 20.4487 31.0446 20.0022 31.0446C19.6396 31.0446 19.3148 31.1285 19.0293 31.2936C18.7424 31.4587 18.5205 31.6901 18.3582 31.981C18.1971 32.2733 18.1173 32.6115 18.1173 32.9931C18.1173 33.3747 18.1971 33.7211 18.3555 34.0134C18.5151 34.3043 18.7357 34.5343 19.0225 34.698C19.3108 34.8618 19.6369 34.9443 20.0035 34.9443C20.4609 34.9443 20.8371 34.8252 21.1334 34.5857C21.4297 34.3449 21.6395 34.0553 21.7599 33.7116H22.6787C22.5704 34.081 22.3986 34.422 22.1712 34.7373C21.9412 35.0512 21.6435 35.3056 21.2768 35.5004C20.9101 35.6939 20.4853 35.7914 20.0035 35.7914V35.7941Z" fill="white"/>
<path d="M25.1829 35.7346C24.8108 35.7346 24.4739 35.648 24.1722 35.4748C23.8718 35.2989 23.6323 35.0607 23.4577 34.7563C23.2804 34.4505 23.1938 34.1108 23.1938 33.7401C23.1938 33.3693 23.2804 33.027 23.4577 32.7198C23.6323 32.4127 23.8718 32.1732 24.1722 31.9973C24.4739 31.8227 24.8108 31.7375 25.1829 31.7375C25.555 31.7375 25.8974 31.8241 26.2005 31.9973C26.5022 32.1732 26.7377 32.4113 26.9095 32.7171C27.0813 33.0229 27.1652 33.3544 27.1652 33.7184V33.9457H24.0355C24.0598 34.1419 24.1261 34.3219 24.2344 34.4816C24.3426 34.6426 24.4793 34.7698 24.6444 34.8632C24.8095 34.9565 24.9881 35.0039 25.1802 35.0039C25.44 35.0039 25.6606 34.9484 25.8432 34.8415C26.0246 34.7346 26.1572 34.5979 26.2424 34.4369H27.103C26.9772 34.8009 26.7512 35.1067 26.4278 35.3597C26.103 35.6114 25.689 35.7373 25.1816 35.7373H25.1843V35.7346H25.1829ZM26.283 33.3598C26.2587 33.1988 26.1964 33.05 26.0976 32.9133C26.0002 32.778 25.8717 32.6684 25.7161 32.5886C25.5564 32.5074 25.3791 32.4668 25.1843 32.4668C24.9894 32.4668 24.8176 32.5074 24.6606 32.5886C24.501 32.6698 24.3724 32.778 24.2709 32.9133C24.1694 33.0486 24.1004 33.1975 24.0598 33.3598H26.2844H26.283Z" fill="white"/>
<path d="M27.9043 37.0794V31.8253H28.727V32.3773H28.75C28.7906 32.3124 28.8677 32.2271 28.976 32.1243C29.0869 32.0215 29.2303 31.9308 29.4076 31.851C29.5822 31.7738 29.7932 31.7332 30.0327 31.7332C30.3616 31.7332 30.6592 31.8185 30.9312 31.9863C31.2032 32.1541 31.4197 32.3922 31.5794 32.698C31.739 33.0038 31.8189 33.3502 31.8189 33.7372C31.8189 34.1242 31.739 34.4638 31.5794 34.7683C31.4183 35.0741 31.2032 35.3109 30.9312 35.4787C30.6592 35.6465 30.3616 35.7317 30.0327 35.7317C29.7932 35.7317 29.5822 35.6925 29.4076 35.614C29.2303 35.5355 29.0869 35.4462 28.976 35.3406C28.8677 35.2378 28.7906 35.1539 28.75 35.0876H28.727V37.0753H27.9043V37.078V37.0794ZM29.8568 35.001C30.0679 35.001 30.2574 34.951 30.4265 34.8454C30.5943 34.7426 30.7282 34.5951 30.8257 34.4029C30.9245 34.2122 30.9718 33.9902 30.9718 33.7386C30.9718 33.4869 30.9245 33.2569 30.8257 33.0661C30.7282 32.8739 30.5943 32.7264 30.4265 32.6236C30.2574 32.5208 30.0679 32.468 29.8568 32.468C29.6458 32.468 29.4536 32.5208 29.2804 32.6236C29.1072 32.7264 28.9719 32.8739 28.8731 33.0661C28.7744 33.2569 28.727 33.4815 28.727 33.7386C28.727 33.9957 28.7744 34.2122 28.8731 34.4029C28.9719 34.5951 29.1072 34.7426 29.2804 34.8454C29.4536 34.9496 29.6471 35.001 29.8568 35.001Z" fill="white"/>
<path d="M32.5579 35.6423V31.8252H34.5334C34.7797 31.8252 34.9935 31.8658 35.1735 31.951C35.3521 32.0349 35.4887 32.1472 35.5807 32.2906C35.6714 32.4354 35.7161 32.5951 35.7161 32.771C35.7161 33.0579 35.6457 33.2608 35.505 33.3785C35.3642 33.4976 35.237 33.5707 35.1193 33.6018H35.1139V33.6248H35.1193C35.1897 33.6343 35.2844 33.6654 35.3994 33.7155C35.5131 33.7655 35.6254 33.8616 35.7323 33.9996C35.8365 34.1376 35.8879 34.3203 35.8879 34.5476C35.8879 34.8737 35.7702 35.1403 35.5293 35.3406C35.2912 35.5408 34.9597 35.6437 34.5321 35.6437H32.5552H32.5579V35.6423ZM34.4347 33.3366C34.5848 33.3366 34.7026 33.3001 34.7851 33.2229C34.8676 33.1472 34.9109 33.0457 34.9109 32.9198C34.9109 32.794 34.869 32.6939 34.7851 32.6167C34.7012 32.541 34.5862 32.5031 34.4347 32.5031H33.3779V33.3339H34.4347V33.3366ZM34.4955 34.9617C34.6701 34.9617 34.8095 34.9157 34.9096 34.8264C35.0097 34.7357 35.0598 34.6166 35.0598 34.4719C35.0598 34.3271 35.0097 34.208 34.9096 34.1173C34.8095 34.0267 34.6701 33.982 34.4955 33.982H33.3806V34.9644H34.4955V34.9617Z" fill="white"/>
<path d="M36.6289 35.6423V31.8252H37.4516V34.0795L37.4286 34.457H37.4719L39.2675 31.8252H40.1646V35.6423H39.3419V33.388L39.3663 33.0105H39.3189L37.5233 35.6423H36.6262H36.6289Z" fill="white"/>
<path d="M42.8659 35.7346C42.4992 35.7346 42.165 35.6453 41.8633 35.4707C41.5615 35.2934 41.3234 35.0553 41.1502 34.7522C40.977 34.4491 40.8904 34.1122 40.8904 33.7401C40.8904 33.368 40.977 33.027 41.1502 32.7239C41.3234 32.4181 41.5602 32.1786 41.8633 32.0013C42.165 31.8254 42.4992 31.7375 42.8659 31.7375C43.2326 31.7375 43.5249 31.8038 43.7847 31.9377C44.0472 32.0703 44.2556 32.2435 44.4112 32.4546C44.5654 32.667 44.6791 32.8984 44.7495 33.1501H43.9051C43.8307 32.958 43.7035 32.7983 43.529 32.667C43.3544 32.5358 43.1325 32.4708 42.8659 32.4708C42.6589 32.4708 42.4695 32.525 42.2963 32.6292C42.1231 32.7347 41.9864 32.8849 41.8863 33.0757C41.7861 33.2678 41.7361 33.4884 41.7361 33.7414C41.7361 33.9945 41.7861 34.2069 41.8863 34.399C41.9864 34.5912 42.1244 34.74 42.2963 34.8456C42.4695 34.9498 42.6589 35.0039 42.8659 35.0039C43.1379 35.0039 43.3639 34.9349 43.5438 34.7955C43.7225 34.6575 43.8496 34.4856 43.92 34.2854H44.7643C44.7035 34.5411 44.5952 34.7806 44.4355 34.9998C44.2786 35.219 44.0675 35.3976 43.8023 35.5329C43.5384 35.6683 43.2245 35.7359 42.8632 35.7359H42.8659V35.7346Z" fill="white"/>
<path d="M47.254 35.7346C46.8725 35.7346 46.5261 35.648 46.2162 35.4748C45.9077 35.2989 45.6668 35.0607 45.4882 34.7563C45.3137 34.4505 45.2244 34.1108 45.2244 33.7401C45.2244 33.3693 45.3137 33.027 45.4882 32.7198C45.6655 32.4127 45.9063 32.1732 46.2162 31.9973C46.5261 31.8227 46.8698 31.7375 47.254 31.7375C47.6383 31.7375 47.9888 31.8241 48.2973 31.9973C48.6072 32.1732 48.8494 32.4127 49.0253 32.7198C49.2025 33.0283 49.2891 33.3693 49.2891 33.7401C49.2891 34.1108 49.2025 34.4532 49.0253 34.7563C48.8507 35.0594 48.6085 35.2989 48.2973 35.4748C47.9888 35.6493 47.6397 35.7346 47.254 35.7346ZM47.254 34.9998C47.48 34.9998 47.683 34.9457 47.8643 34.8415C48.0456 34.736 48.1877 34.5871 48.2919 34.395C48.3947 34.2028 48.4448 33.9836 48.4448 33.7374C48.4448 33.4911 48.3947 33.2638 48.2919 33.0716C48.1877 32.8808 48.0456 32.7306 47.8643 32.6251C47.6816 32.5209 47.4787 32.4668 47.254 32.4668C47.0294 32.4668 46.8305 32.5209 46.6519 32.6251C46.4692 32.7306 46.3272 32.8808 46.2243 33.0716C46.1215 33.2638 46.0687 33.4843 46.0687 33.7374C46.0687 33.9904 46.1201 34.2028 46.2243 34.395C46.3272 34.5871 46.4692 34.736 46.6519 34.8415C46.8305 34.9457 47.0321 34.9998 47.254 34.9998Z" fill="white"/>
<path d="M50.0131 35.6423V31.8252H51.9886C52.2349 31.8252 52.4487 31.8658 52.6286 31.951C52.8073 32.0349 52.9439 32.1472 53.0359 32.2906C53.1266 32.4354 53.1712 32.5951 53.1712 32.771C53.1712 33.0579 53.1009 33.2608 52.9602 33.3785C52.8194 33.4976 52.6922 33.5707 52.5745 33.6018H52.5691V33.6248H52.5745C52.6449 33.6343 52.7396 33.6654 52.8546 33.7155C52.9683 33.7655 53.0806 33.8616 53.1875 33.9996C53.2917 34.1376 53.3444 34.3203 53.3444 34.5476C53.3444 34.8737 53.2254 35.1403 52.9859 35.3406C52.7477 35.5408 52.4162 35.6437 51.9886 35.6437H50.0117L50.0131 35.6423ZM51.8912 33.3366C52.0414 33.3366 52.1591 33.3001 52.2417 33.2229C52.3255 33.1472 52.3675 33.0457 52.3675 32.9198C52.3675 32.794 52.3255 32.6939 52.2417 32.6167C52.1578 32.541 52.0427 32.5031 51.8912 32.5031H50.8344V33.3339H51.8912V33.3366ZM51.9507 34.9617C52.1253 34.9617 52.2647 34.9157 52.3648 34.8264C52.4649 34.7357 52.515 34.6166 52.515 34.4719C52.515 34.3271 52.4649 34.208 52.3648 34.1173C52.2647 34.0267 52.1253 33.982 51.9507 33.982H50.8358V34.9644H51.9507V34.9617Z" fill="white"/>
<path d="M42.7076 28.9581L41.8186 28.0677C41.5777 27.8255 41.2435 27.6875 40.9039 27.6875H22.9007C20.8642 27.6875 19.208 26.0272 19.208 23.9854V13.3269H25.1482L27.278 14.3174L29.4782 13.3269H66.2071V23.9854C66.2071 26.0272 64.5509 27.6875 62.5145 27.6875H44.5113C44.1662 27.6875 43.8401 27.8228 43.5952 28.0677L42.7076 28.9567V28.9581ZM20.2391 14.362V23.9854C20.2391 25.4562 21.4325 26.6524 22.8993 26.6524H40.9025C41.5141 26.6524 42.1135 26.9014 42.5465 27.3357L42.7062 27.494L42.8645 27.3357C43.3056 26.8946 43.8902 26.6524 44.5099 26.6524H62.5131C63.9799 26.6524 65.1733 25.4562 65.1733 23.9854V14.362H20.2391Z" fill="white"/>
<path d="M25.0736 22.3171V17.0251H25.9721V19.2185H26.8611L28.4077 17.0251H29.4388L27.6513 19.5797L29.5375 22.3171H28.4672L26.8976 20.0628H25.9707V22.3171H25.0723H25.0736Z" fill="white"/>
<path d="M31.3844 22.4074C31.0583 22.4074 30.758 22.3222 30.4833 22.1544C30.2086 21.9866 29.9907 21.7485 29.8297 21.4427C29.6687 21.1382 29.5889 20.7932 29.5889 20.4116C29.5889 20.03 29.6687 19.6782 29.8297 19.3724C29.9907 19.0666 30.2086 18.8298 30.4833 18.6607C30.7566 18.4929 31.057 18.4076 31.3844 18.4076C31.6199 18.4076 31.8269 18.4469 32.0069 18.5253C32.1841 18.6052 32.3303 18.6958 32.4399 18.8014C32.5508 18.9069 32.6226 18.9908 32.6577 19.0504H32.6821V18.4983H33.5102V22.3154H32.6821V21.7633H32.6577C32.6239 21.8283 32.5508 21.9135 32.4399 22.0164C32.3289 22.1206 32.1841 22.2099 32.0069 22.2897C31.8283 22.3668 31.6199 22.4074 31.3844 22.4074ZM31.5495 21.674C31.7606 21.674 31.9541 21.6226 32.1273 21.5184C32.3005 21.4156 32.4358 21.2681 32.5346 21.076C32.632 20.8852 32.6807 20.6633 32.6807 20.4116C32.6807 20.1599 32.6293 19.9299 32.5346 19.7391C32.4358 19.5469 32.3005 19.3995 32.1273 19.2966C31.9541 19.1938 31.7606 19.141 31.5495 19.141C31.3384 19.141 31.1544 19.1938 30.9853 19.2966C30.8148 19.3995 30.6795 19.5469 30.5807 19.7391C30.4833 19.9299 30.4346 20.1545 30.4346 20.4116C30.4346 20.6687 30.486 20.8852 30.5807 21.076C30.6795 21.2681 30.8148 21.4156 30.9853 21.5184C31.1544 21.6226 31.3439 21.674 31.5495 21.674Z" fill="white"/>
<path d="M34.0167 23.1479V21.5837H34.4308L35.2589 18.4999H37.0694L37.8975 21.5837H38.3115V23.1479H37.5199V22.3171H34.807V23.1479H34.0154H34.0167ZM35.2589 21.585H37.0694L36.4293 19.2333H35.9016L35.2589 21.585Z" fill="white"/>
<path d="M38.8279 23.7538V18.4996H39.6465V19.0517H39.6709C39.7115 18.9868 39.7845 18.9015 39.8968 18.7987C40.0078 18.6958 40.1512 18.6052 40.3258 18.5253C40.503 18.4482 40.7114 18.4076 40.9523 18.4076C41.2784 18.4076 41.5788 18.4929 41.8494 18.6607C42.1214 18.8284 42.3379 19.0666 42.4975 19.3724C42.6585 19.6782 42.7384 20.0246 42.7384 20.4116C42.7384 20.7986 42.6572 21.1382 42.4975 21.4427C42.3365 21.7485 42.1214 21.9853 41.8494 22.1544C41.5801 22.3222 41.2797 22.4074 40.9523 22.4074C40.7114 22.4074 40.503 22.3682 40.3258 22.2897C40.1512 22.2099 40.0078 22.1219 39.8968 22.0164C39.7859 21.9135 39.7128 21.8297 39.6709 21.7633H39.6465V23.7511H38.8279V23.7538ZM40.7791 21.6754C40.9902 21.6754 41.1796 21.624 41.3474 21.5198C41.5165 21.417 41.6491 21.2695 41.7479 21.0773C41.8453 20.8865 41.894 20.6646 41.894 20.4129C41.894 20.1613 41.844 19.9312 41.7479 19.7404C41.6491 19.5483 41.5165 19.4008 41.3474 19.298C41.1796 19.1951 40.9902 19.1424 40.7791 19.1424C40.568 19.1424 40.3758 19.1951 40.2026 19.298C40.0281 19.4008 39.8928 19.5483 39.794 19.7404C39.6966 19.9312 39.6465 20.1558 39.6465 20.4129C39.6465 20.67 39.6979 20.8865 39.794 21.0773C39.8928 21.2695 40.0281 21.417 40.2026 21.5198C40.3758 21.624 40.568 21.6754 40.7791 21.6754Z" fill="white"/>
<path d="M45.2816 22.4077C44.8987 22.4077 44.5536 22.3211 44.2438 22.1479C43.9353 21.972 43.6931 21.7339 43.5158 21.4294C43.3413 21.1236 43.252 20.7854 43.252 20.4133C43.252 20.0411 43.3413 19.7002 43.5158 19.393C43.6931 19.0859 43.9339 18.8463 44.2438 18.6704C44.5536 18.4959 44.8973 18.4106 45.2816 18.4106C45.6659 18.4106 46.0164 18.4972 46.3249 18.6704C46.6347 18.8463 46.8756 19.0859 47.0529 19.393C47.2301 19.7015 47.3167 20.0425 47.3167 20.4133C47.3167 20.784 47.2301 21.1263 47.0529 21.4294C46.8783 21.7339 46.6361 21.972 46.3249 22.1479C46.0164 22.3225 45.6673 22.4077 45.2816 22.4077ZM45.2816 21.6744C45.5076 21.6744 45.7106 21.6202 45.8919 21.516C46.0732 21.4105 46.2153 21.2617 46.3195 21.0695C46.4223 20.8774 46.4737 20.6582 46.4737 20.4119C46.4737 20.1656 46.4237 19.9383 46.3195 19.7462C46.2153 19.5554 46.0745 19.4052 45.8919 19.2996C45.7092 19.1955 45.5062 19.1413 45.2816 19.1413C45.057 19.1413 44.8581 19.1955 44.6795 19.2996C44.4968 19.4052 44.3547 19.5554 44.2519 19.7462C44.1491 19.9383 44.0963 20.1589 44.0963 20.4119C44.0963 20.6649 44.1477 20.8774 44.2519 21.0695C44.3547 21.2617 44.4968 21.4105 44.6795 21.516C44.8581 21.6202 45.0597 21.6744 45.2816 21.6744Z" fill="white"/>
<path d="M48.0419 22.3171V18.4999H50.0174C50.2637 18.4999 50.4775 18.5405 50.6575 18.6258C50.8361 18.7097 50.9727 18.822 51.0647 18.9654C51.1554 19.1102 51.2001 19.2699 51.2001 19.4458C51.2001 19.7326 51.1297 19.9356 50.989 20.0533C50.8482 20.1724 50.7211 20.2455 50.6047 20.2766H50.5993V20.2996H50.6047C50.675 20.3091 50.7698 20.3402 50.8848 20.3902C50.9984 20.4417 51.1107 20.5364 51.2176 20.6744C51.3218 20.8124 51.3746 20.9951 51.3746 21.2224C51.3746 21.5485 51.2569 21.8151 51.016 22.0153C50.7779 22.2156 50.4464 22.3184 50.0188 22.3184H48.0405L48.0419 22.3171ZM49.9187 20.0114C50.0702 20.0114 50.1866 19.9748 50.2705 19.8977C50.353 19.8219 50.3963 19.7204 50.3963 19.5946C50.3963 19.4688 50.3544 19.3686 50.2705 19.2915C50.1866 19.2157 50.0716 19.1778 49.9187 19.1778H48.8619V20.0087H49.9187V20.0114ZM49.9795 21.6351C50.1541 21.6351 50.2935 21.5905 50.3936 21.4998C50.4937 21.4091 50.5438 21.2901 50.5438 21.1453C50.5438 21.0005 50.4937 20.8814 50.3936 20.7908C50.2935 20.7001 50.1541 20.6555 49.9795 20.6555H48.8646V21.6378H49.9795V21.6351Z" fill="white"/>
<path d="M52.1128 22.3171V18.4999H52.9355V19.7475H53.7487C54.041 19.7475 54.2981 19.8057 54.5254 19.9221C54.7514 20.0384 54.9259 20.1954 55.0491 20.3902C55.1722 20.5864 55.2331 20.8016 55.2331 21.033C55.2331 21.2644 55.1722 21.4863 55.0491 21.6825C54.9259 21.8787 54.7514 22.0343 54.5254 22.1479C54.2981 22.2616 54.0396 22.3171 53.7487 22.3171H52.1128ZM53.7108 21.5986C53.9219 21.5986 54.0897 21.5458 54.2088 21.4403C54.3305 21.3347 54.3914 21.198 54.3914 21.0316C54.3914 20.8652 54.3305 20.7285 54.2088 20.623C54.091 20.5188 53.9219 20.4647 53.7108 20.4647H52.9355V21.5986H53.7108ZM55.6715 22.3171V18.4999H56.5023V22.3171H55.6715Z" fill="white"/>
<path d="M57.0056 22.3171L58.1382 20.3741L57.0665 18.4987H57.988L58.7931 19.9966H59.0569L59.8742 18.4987H60.793L59.7227 20.3741L60.8525 22.3171H59.9338L59.0583 20.7299H58.7944L57.9284 22.3171H57.0056Z" fill="white"/>
<path d="M27.2806 15.6312L26.393 14.7395C26.1481 14.4946 25.822 14.3593 25.4756 14.3593H4.37917C2.34274 14.3593 0.686523 12.699 0.686523 10.6571V0H54.9058V10.6571C54.9058 12.699 53.2496 14.3593 51.2132 14.3593H29.083C28.7434 14.3593 28.4078 14.4973 28.1683 14.7395L27.2793 15.6298L27.2806 15.6312ZM1.7176 1.03378V10.6571C1.7176 12.128 2.91104 13.3241 4.37782 13.3241H25.4742C26.0953 13.3241 26.6785 13.5663 27.1183 14.0074L27.2779 14.1671L27.4376 14.0088C27.8706 13.5745 28.47 13.3255 29.0816 13.3255H51.2118C52.6786 13.3255 53.8721 12.1293 53.8721 10.6585V1.03378H1.7176Z" fill="white"/>
<path d="M7.7063 8.99967L8.49788 7.04984H7.36532L6.04468 3.70764H7.00404L7.96881 6.20279H8.8348L9.79957 3.70764H10.7346L8.64537 8.99967H7.70495H7.7063Z" fill="white"/>
<path d="M10.7588 8.99975V5.18262H14.2431V8.99975H13.4122V5.91601H11.5788V8.99975H10.7588Z" fill="white"/>
<path d="M15.1853 10.4352V5.18109H16.008V5.73316H16.031C16.0716 5.66821 16.1487 5.58297 16.257 5.48013C16.3679 5.37729 16.5114 5.28664 16.6886 5.2068C16.8632 5.12967 17.0743 5.08908 17.3138 5.08908C17.6426 5.08908 17.9402 5.17433 18.2122 5.34211C18.4842 5.5099 18.7007 5.74805 18.8604 6.05385C19.02 6.35966 19.0999 6.70605 19.0999 7.09304C19.0999 7.48003 19.02 7.81967 18.8604 8.12412C18.6993 8.42992 18.4842 8.66672 18.2122 8.83586C17.9402 9.00364 17.6426 9.08889 17.3138 9.08889C17.0743 9.08889 16.8632 9.04965 16.6886 8.97117C16.5114 8.89133 16.3679 8.80338 16.257 8.69784C16.1487 8.595 16.0716 8.51111 16.031 8.44481H16.008V10.4325H15.1853V10.4352ZM17.1378 8.35685C17.3489 8.35685 17.5384 8.30544 17.7075 8.20125C17.8753 8.09841 18.0093 7.95092 18.1067 7.75878C18.2055 7.56799 18.2528 7.34608 18.2528 7.0944C18.2528 6.84272 18.2055 6.61269 18.1067 6.4219C18.0093 6.22976 17.8753 6.08227 17.7075 5.97943C17.5384 5.87659 17.3489 5.82382 17.1378 5.82382C16.9268 5.82382 16.7346 5.87659 16.5614 5.97943C16.3882 6.08227 16.2529 6.22976 16.1541 6.4219C16.0554 6.61269 16.008 6.83731 16.008 7.0944C16.008 7.35149 16.0554 7.56799 16.1541 7.75878C16.2529 7.95092 16.3882 8.09841 16.5614 8.20125C16.7346 8.30544 16.9281 8.35685 17.1378 8.35685Z" fill="white"/>
<path d="M21.4201 9.08889C21.094 9.08889 20.7936 9.00364 20.5189 8.83586C20.2442 8.66807 20.0264 8.42992 19.8654 8.12412C19.7043 7.81967 19.6245 7.47462 19.6245 7.09304C19.6245 6.71147 19.7043 6.35966 19.8654 6.05385C20.0264 5.74805 20.2442 5.51125 20.5189 5.34211C20.7923 5.17433 21.0926 5.08908 21.4201 5.08908C21.6555 5.08908 21.8626 5.12832 22.0425 5.2068C22.2198 5.28664 22.3659 5.37729 22.4755 5.48284C22.5865 5.58838 22.6595 5.67227 22.6934 5.73181H22.7177V5.17974H23.5458V8.99688H22.7177V8.44481H22.6934C22.6595 8.50976 22.5865 8.595 22.4755 8.69784C22.3646 8.80203 22.2198 8.89133 22.0425 8.97117C21.8639 9.0483 21.6555 9.08889 21.4201 9.08889ZM21.5852 8.3555C21.7963 8.3555 21.9898 8.30408 22.163 8.19989C22.3362 8.09706 22.4715 7.94957 22.5702 7.75742C22.6677 7.56663 22.7164 7.34472 22.7164 7.09304C22.7164 6.84136 22.665 6.61134 22.5702 6.42055C22.4715 6.2284 22.3362 6.08091 22.163 5.97808C21.9898 5.87524 21.7963 5.82247 21.5852 5.82247C21.3741 5.82247 21.1901 5.87524 21.0209 5.97808C20.8504 6.08091 20.7151 6.2284 20.6163 6.42055C20.5189 6.61134 20.4702 6.83595 20.4702 7.09304C20.4702 7.35014 20.5216 7.56663 20.6163 7.75742C20.7151 7.94957 20.8504 8.09706 21.0209 8.19989C21.1901 8.30408 21.3795 8.3555 21.5852 8.3555Z" fill="white"/>
<path d="M24.4906 8.99976V5.18262H26.4648C26.7097 5.18262 26.9249 5.22321 27.1048 5.30846C27.2861 5.39235 27.4201 5.50466 27.5121 5.64809C27.6028 5.79287 27.6488 5.95254 27.6488 6.12844C27.6488 6.41531 27.5784 6.61827 27.4377 6.73599C27.297 6.85507 27.1684 6.92814 27.0521 6.95926H27.0439V6.98226H27.0521C27.1224 6.99173 27.2158 7.02285 27.3294 7.07292C27.4472 7.12434 27.5568 7.21906 27.6623 7.35707C27.7692 7.49509 27.822 7.67776 27.822 7.90508C27.822 8.23119 27.7002 8.49775 27.4634 8.69801C27.2239 8.89827 26.891 9.00111 26.4635 9.00111H24.4893H24.4906V8.99976ZM26.3674 6.69269C26.5189 6.69269 26.6353 6.65616 26.7192 6.57903C26.8044 6.50326 26.845 6.40177 26.845 6.27593C26.845 6.15009 26.8044 6.04996 26.7192 5.97284C26.6367 5.89706 26.5203 5.85917 26.3674 5.85917H25.3106V6.68999H26.3674V6.69269ZM26.4269 8.31779C26.6042 8.31779 26.7408 8.27313 26.841 8.18247C26.9411 8.09182 26.9925 7.97274 26.9925 7.82796C26.9925 7.68317 26.9411 7.5641 26.841 7.47344C26.7408 7.38278 26.6028 7.33813 26.4269 7.33813H25.312V8.32049H26.4269V8.31779Z" fill="white"/>
<path d="M28.1234 8.99975L29.1626 5.18262H30.9663L32.0055 8.99975H31.1612L30.3331 5.91601H29.7972L28.9664 8.99975H28.1221H28.1234Z" fill="white"/>
<path d="M34.2847 9.08905C33.9126 9.08905 33.5757 9.00245 33.274 8.82925C32.9736 8.65335 32.7341 8.4152 32.5595 8.11075C32.3823 7.80494 32.2957 7.46667 32.2957 7.09456C32.2957 6.72245 32.3823 6.38147 32.5595 6.07431C32.7341 5.76715 32.9736 5.52765 33.274 5.35175C33.5757 5.1772 33.9126 5.09195 34.2847 5.09195C34.6568 5.09195 34.9992 5.17855 35.3023 5.35175C35.604 5.52765 35.8395 5.7658 36.0113 6.0716C36.1832 6.37741 36.267 6.70892 36.267 7.07291V7.30023H33.1373C33.1616 7.49644 33.2279 7.6764 33.3362 7.83607C33.4444 7.99709 33.5811 8.12428 33.7462 8.21765C33.9113 8.31101 34.0899 8.35702 34.282 8.35702C34.5418 8.35702 34.7624 8.30154 34.9451 8.19464C35.1264 8.08775 35.259 7.95108 35.3442 7.79006H36.2048C36.079 8.15405 35.8543 8.45985 35.5296 8.71289C35.2049 8.96456 34.7908 9.0904 34.2834 9.0904H34.2861L34.2847 9.08905ZM35.3848 6.71569C35.3605 6.55467 35.2982 6.40582 35.1994 6.26916C35.102 6.13385 34.9735 6.02425 34.8179 5.94441C34.6582 5.86322 34.4809 5.82263 34.2861 5.82263C34.0912 5.82263 33.9194 5.86322 33.7624 5.94441C33.6028 6.0256 33.4742 6.13385 33.3727 6.26916C33.2712 6.40447 33.2022 6.55331 33.1616 6.71569H35.3862H35.3848Z" fill="white"/>
<path d="M37.0068 8.99975V5.18262H37.8255V6.68052H39.6968V5.18262H40.5249V8.99975H39.6968V7.41255H37.8255V8.99975H37.0068Z" fill="white"/>
<path d="M41.4723 8.99975V5.18262H42.2923V7.43691L42.2693 7.81443H42.3153L44.1082 5.18262H45.0066V8.99975H44.1839V6.74546L44.2069 6.36795H44.1636L42.3681 8.99975H41.4709H41.4723Z" fill="white"/>
<path d="M47.7209 9.08905C47.3488 9.08905 47.0119 9.00245 46.7101 8.82925C46.4097 8.65335 46.1702 8.4152 45.9943 8.11075C45.8171 7.80494 45.7305 7.46667 45.7305 7.09456C45.7305 6.72245 45.8171 6.38147 45.9943 6.07431C46.1689 5.76715 46.4097 5.52765 46.7101 5.35175C47.0119 5.1772 47.3488 5.09195 47.7209 5.09195C48.093 5.09195 48.4367 5.17855 48.7384 5.35175C49.0402 5.52765 49.2756 5.7658 49.4475 6.0716C49.6193 6.37741 49.7032 6.70892 49.7032 7.07291V7.30023H46.5735C46.5978 7.49644 46.6641 7.6764 46.7724 7.83607C46.8806 7.99709 47.0186 8.12428 47.1824 8.21765C47.3474 8.31101 47.526 8.35702 47.7182 8.35702C47.978 8.35702 48.1986 8.30154 48.3812 8.19464C48.5625 8.08775 48.6951 7.95108 48.7804 7.79006H49.641C49.5151 8.15405 49.2905 8.45985 48.9658 8.71289C48.641 8.96456 48.227 9.0904 47.7195 9.0904H47.7223H47.7209V9.08905ZM48.821 6.71569C48.7966 6.55467 48.7344 6.40582 48.637 6.26916C48.5395 6.13385 48.411 6.02425 48.254 5.94441C48.0944 5.86322 47.9171 5.82263 47.7223 5.82263C47.5274 5.82263 47.3556 5.86322 47.1986 5.94441C47.0389 6.0256 46.9104 6.13385 46.8089 6.26916C46.7074 6.40447 46.6384 6.55331 46.5978 6.71569H48.8223H48.821Z" fill="white"/>
</svg>
