<svg width="24" height="24" viewBox="0 0 24 24" fill="none" xmlns="http://www.w3.org/2000/svg">
<path fill-rule="evenodd" clip-rule="evenodd" d="M19.5 8.25H15V4.5C15.1574 3.00056 14.0694 1.65744 12.57 1.5C12.3807 1.4775 12.1893 1.4775 12 1.5H10.8225C10.3069 1.51413 9.86595 1.87489 9.75 2.3775V2.4675L9 7.2225L6.345 11.25H1.5V21.75H15.75C21.33 21.75 22.5 18.4875 22.5 15.75V11.25C22.6574 9.75056 21.5694 8.40744 20.07 8.25C19.8807 8.2275 19.6893 8.2275 19.5 8.25V8.25ZM6 20.25H3V12.75H6V20.25ZM21 15.75C21 18.8175 19.335 20.25 15.75 20.25H7.5V12.225L10.5 7.7775L11.0475 3.75L11.1525 3H12C13.08 3 13.5 3.42 13.5 4.5V9.75H19.5C20.58 9.75 21 10.17 21 11.25V15.75Z" fill="#B30A3F"/>
</svg>
