<svg width="112" height="43" viewBox="0 0 112 43" fill="none" xmlns="http://www.w3.org/2000/svg">
<path d="M16.732 21.8452V38.3167H0.407278L16.732 21.8452ZM15.8013 21.5589H1.90422L8.85389 28.5856L15.8013 21.5589ZM6.98591 30.4739L0.160645 23.7065V37.3786L6.98591 30.4739ZM8.03277 11.8006L0.280608 3.96387H0.160645V20.7217H8.03277V11.8006ZM12.7464 3.96387H4.14702L8.4456 8.31175L12.7464 3.96387ZM16.6135 3.96387L8.86431 11.8006V20.7217H16.732V3.96387H16.6135ZM28.8893 20.721H34.132V13.417H28.8893V20.721ZM17.5636 20.721H26.1555V11.2084L17.5606 3.98195L17.5636 20.721ZM18.7498 3.96387L26.5549 10.61H34.1312V3.96387H18.7498ZM23.3375 32.513L34.1312 21.5596H17.5598V26.6701L23.3375 32.513ZM21.4166 38.3152H34.1312V25.6996L21.4166 38.3152ZM17.5598 27.8509V38.3182L22.7481 33.1015L17.5598 27.8509Z" fill="white"/>
<path d="M43.2821 10.8776C42.9381 10.8776 42.636 10.8309 42.3756 10.7376V9.9632C42.6638 10.0969 42.9567 10.1638 43.2542 10.1638C43.5951 10.1638 43.8679 10.086 44.0724 9.93054C44.28 9.77194 44.4861 9.47648 44.6906 9.04418L42.0455 3.96388H42.9195L44.9277 7.84058C45.0052 7.99297 45.0656 8.14226 45.109 8.28843H45.1462C45.2329 8.02718 45.2934 7.86235 45.3275 7.79393L46.9963 3.96388H47.8331L45.6621 8.84357C45.4019 9.42516 45.1663 9.84813 44.9556 10.1125C44.748 10.3768 44.5125 10.5712 44.249 10.6956C43.9887 10.8169 43.6664 10.8776 43.2821 10.8776Z" fill="white"/>
<path d="M49.4229 5.67131V7.81259H52.2771V5.67131H53.0488V10.7843H52.2771V8.4797H49.4229V10.7843H48.6512V5.67131H49.4229Z" fill="white"/>
<path d="M55.4103 5.67131V8.91355L55.3777 9.7626L55.3638 10.0285L58.1204 5.67131H59.0827V10.7843H58.3621V7.65864L58.3761 7.04285L58.3994 6.43638L55.6474 10.7843H54.6851V5.67131H55.4103Z" fill="white"/>
<path d="M64.8516 6.95421C64.8516 7.28699 64.7555 7.54046 64.5634 7.71463C64.3744 7.88568 64.1078 8.00075 63.7638 8.05984V8.10183C64.1977 8.16092 64.5138 8.28843 64.7122 8.48436C64.9136 8.6803 65.0143 8.95087 65.0143 9.29609C65.0143 9.77194 64.8392 10.1389 64.489 10.3971C64.1419 10.6552 63.6337 10.7843 62.9642 10.7843H60.719V5.67131H62.955C64.2194 5.67131 64.8516 6.09895 64.8516 6.95421ZM64.2426 9.24478C64.2426 8.96798 64.1373 8.76738 63.9265 8.64298C63.7189 8.51547 63.3733 8.45171 62.8898 8.45171H61.4907V10.1358H62.9085C63.7979 10.1358 64.2426 9.8388 64.2426 9.24478ZM64.0985 7.02886C64.0985 6.78005 64.0025 6.60433 63.8103 6.5017C63.6213 6.39595 63.333 6.34308 62.9457 6.34308H61.4907V7.7846H62.7969C63.2742 7.7846 63.6104 7.72551 63.8056 7.60732C64.0009 7.48914 64.0985 7.29632 64.0985 7.02886Z" fill="white"/>
<path d="M68.2915 10.8776C67.5385 10.8776 66.9435 10.6474 66.5065 10.1871C66.0726 9.72684 65.8557 9.08772 65.8557 8.26977C65.8557 7.4456 66.0571 6.79093 66.46 6.30577C66.8659 5.82059 67.4098 5.57801 68.0917 5.57801C68.7301 5.57801 69.2352 5.7895 69.6071 6.21246C69.979 6.63232 70.165 7.18747 70.165 7.8779V8.36774H66.6552C66.6708 8.96798 66.821 9.4236 67.1061 9.73461C67.3944 10.0456 67.7988 10.2011 68.3195 10.2011C68.868 10.2011 69.4103 10.086 69.9465 9.85591V10.5463C69.6737 10.6645 69.415 10.7485 69.1701 10.7983C68.9284 10.8511 68.6356 10.8776 68.2915 10.8776ZM68.0824 6.22646C67.6733 6.22646 67.3464 6.36019 67.1015 6.62765C66.8598 6.89512 66.7172 7.26522 66.6738 7.73795H69.3375C69.3375 7.24967 69.229 6.87646 69.0121 6.61832C68.7951 6.35708 68.4852 6.22646 68.0824 6.22646Z" fill="white"/>
<path d="M73.8557 10.8776C73.5245 10.8776 73.2203 10.8169 72.9451 10.6956C72.6721 10.5712 72.443 10.3815 72.2565 10.1265H72.2012C72.238 10.425 72.2565 10.7081 72.2565 10.9755V13.0795H71.4849V5.67131H72.1125L72.2196 6.37108H72.2565C72.4551 6.09117 72.6863 5.88901 72.9494 5.76462C73.2132 5.64021 73.5153 5.57801 73.8557 5.57801C74.5316 5.57801 75.0522 5.80971 75.4181 6.27311C75.7869 6.73651 75.9713 7.38651 75.9713 8.22312C75.9713 9.06284 75.7834 9.71595 75.4082 10.1825C75.0366 10.6459 74.5188 10.8776 73.8557 10.8776ZM73.7444 6.23579C73.2238 6.23579 72.8473 6.38041 72.6146 6.66964C72.382 6.95888 72.2629 7.41917 72.2565 8.05051V8.22312C72.2565 8.94154 72.3763 9.45626 72.6146 9.76727C72.8536 10.0752 73.2359 10.2291 73.7628 10.2291C74.2033 10.2291 74.5472 10.0503 74.7947 9.69263C75.0458 9.33497 75.1713 8.84202 75.1713 8.21379C75.1713 7.57623 75.0458 7.08795 74.7947 6.74895C74.5472 6.40684 74.1969 6.23579 73.7444 6.23579Z" fill="white"/>
<path d="M79.3599 10.8776C78.6223 10.8776 78.0507 10.6505 77.6443 10.1965C77.2415 9.73927 77.0401 9.09394 77.0401 8.26044C77.0401 7.40517 77.245 6.74429 77.6535 6.27777C78.0663 5.81126 78.6514 5.57801 79.411 5.57801C79.6556 5.57801 79.9003 5.60444 80.1457 5.65731C80.3904 5.71019 80.5826 5.77239 80.7216 5.84392L80.4847 6.5017C80.3145 6.43328 80.1287 6.37729 79.9273 6.33375C79.7258 6.28711 79.5471 6.26378 79.3925 6.26378C78.3571 6.26378 77.8401 6.92622 77.8401 8.25111C77.8401 8.87934 77.9656 9.3614 78.2159 9.69729C78.4705 10.0332 78.8457 10.2011 79.3415 10.2011C79.7656 10.2011 80.201 10.1094 80.6478 9.92588V10.6117C80.3067 10.7889 79.8776 10.8776 79.3599 10.8776Z" fill="white"/>
<path d="M82.5861 5.67131V8.91355L82.5535 9.7626L82.5393 10.0285L85.296 5.67131H86.2584V10.7843H85.5378V7.65864L85.552 7.04285L85.5747 6.43638L82.823 10.7843H81.8606V5.67131H82.5861Z" fill="white"/>
<path d="M91.3299 6.33375H89.6753V10.7843H88.9037V6.33375H87.2668V5.67131H91.3299V6.33375Z" fill="white"/>
<path d="M94.3979 10.8776C93.6447 10.8776 93.0497 10.6474 92.6128 10.1871C92.1788 9.72684 91.9625 9.08772 91.9625 8.26977C91.9625 7.4456 92.1639 6.79093 92.5667 6.30577C92.9724 5.82059 93.5164 5.57801 94.1979 5.57801C94.8369 5.57801 95.3419 5.7895 95.7135 6.21246C96.0858 6.63232 96.2716 7.18747 96.2716 7.8779V8.36774H92.7618C92.7774 8.96798 92.9277 9.4236 93.2128 9.73461C93.5008 10.0456 93.905 10.2011 94.4263 10.2011C94.9745 10.2011 95.517 10.086 96.0532 9.85591V10.5463C95.7802 10.6645 95.5213 10.7485 95.2766 10.7983C95.0348 10.8511 94.7419 10.8776 94.3979 10.8776ZM94.1887 6.22646C93.7795 6.22646 93.4525 6.36019 93.2079 6.62765C92.966 6.89512 92.8235 7.26522 92.7802 7.73795H95.444C95.444 7.24967 95.3355 6.87646 95.1185 6.61832C94.9015 6.35708 94.5915 6.22646 94.1887 6.22646Z" fill="white"/>
<path d="M101.027 6.33375H99.3723V10.7843H98.6007V6.33375H96.9638V5.67131H101.027V6.33375Z" fill="white"/>
<path d="M47.9259 24.5046H47.1357V18.3886H43.6446V24.5046H42.8543V17.6842H47.9259V24.5046Z" fill="white"/>
<path d="M52.0539 24.5979C51.7223 24.5979 51.4186 24.5372 51.1428 24.4159C50.8701 24.2915 50.6407 24.1018 50.4548 23.8468H50.399C50.4362 24.1453 50.4548 24.4283 50.4548 24.6959V26.7998H49.6831V19.3916H50.3107L50.4176 20.0913H50.4548C50.6531 19.8115 50.884 19.6093 51.1474 19.4849C51.4108 19.3605 51.713 19.2983 52.0539 19.2983C52.7295 19.2983 53.2502 19.53 53.6158 19.9934C53.9846 20.4568 54.169 21.1068 54.169 21.9434C54.169 22.7831 53.9815 23.4362 53.6065 23.9028C53.2346 24.3662 52.7171 24.5979 52.0539 24.5979ZM51.9423 19.9561C51.4217 19.9561 51.0452 20.1007 50.8128 20.3899C50.5803 20.6792 50.461 21.1395 50.4548 21.7708V21.9434C50.4548 22.6619 50.5741 23.1765 50.8128 23.4876C51.0513 23.7955 51.4341 23.9494 51.9609 23.9494C52.401 23.9494 52.745 23.7706 52.9929 23.4129C53.2439 23.0553 53.3695 22.5623 53.3695 21.9341C53.3695 21.2965 53.2439 20.8083 52.9929 20.4692C52.745 20.1271 52.3948 19.9561 51.9423 19.9561Z" fill="white"/>
<path d="M58.6549 24.5046L58.5015 23.7768H58.4643C58.2102 24.0971 57.956 24.3149 57.7019 24.4299C57.4509 24.5419 57.1363 24.5979 56.7583 24.5979C56.2532 24.5979 55.8564 24.4672 55.5683 24.206C55.2831 23.9447 55.1406 23.5731 55.1406 23.091C55.1406 22.0585 55.9634 21.5174 57.609 21.4676L58.4736 21.4396V21.1224C58.4736 20.7212 58.3868 20.4257 58.2133 20.236C58.0428 20.0431 57.7686 19.9468 57.3905 19.9468C56.9659 19.9468 56.4856 20.0774 55.9494 20.3386L55.7123 19.7462C55.9634 19.6093 56.2376 19.502 56.5351 19.4243C56.8358 19.3465 57.1363 19.3077 57.437 19.3077C58.0444 19.3077 58.4938 19.4429 58.7851 19.7135C59.0795 19.984 59.2267 20.418 59.2267 21.0151V24.5046H58.6549ZM56.9117 23.9587C57.3921 23.9587 57.7686 23.8265 58.0413 23.5622C58.3171 23.2979 58.455 22.9277 58.455 22.4519V21.9901L57.6834 22.0227C57.0697 22.0445 56.6266 22.1409 56.3539 22.3119C56.0842 22.4799 55.9494 22.7427 55.9494 23.1004C55.9494 23.3803 56.0331 23.5933 56.2005 23.7395C56.3709 23.8856 56.608 23.9587 56.9117 23.9587Z" fill="white"/>
<path d="M64.9538 20.6745C64.9538 21.0073 64.8577 21.2607 64.6656 21.4349C64.4765 21.606 64.21 21.721 63.866 21.7801V21.8221C64.2998 21.8812 64.616 22.0087 64.8143 22.2047C65.0158 22.4006 65.1165 22.6712 65.1165 23.0164C65.1165 23.4922 64.9414 23.8592 64.5912 24.1174C64.2441 24.3755 63.7359 24.5046 63.0664 24.5046H60.8212V19.3916H63.0571C64.3215 19.3916 64.9538 19.8192 64.9538 20.6745ZM64.3448 22.9651C64.3448 22.6883 64.2394 22.4877 64.0287 22.3633C63.821 22.2358 63.4755 22.172 62.992 22.172H61.5928V23.8561H63.0106C63.9 23.8561 64.3448 23.5591 64.3448 22.9651ZM64.2007 20.7492C64.2007 20.5004 64.1046 20.3246 63.9124 20.222C63.7234 20.1162 63.4352 20.0634 63.0479 20.0634H61.5928V21.5049H62.8991C63.3764 21.5049 63.7126 21.4458 63.9078 21.3277C64.1031 21.2095 64.2007 21.0166 64.2007 20.7492Z" fill="white"/>
<path d="M66.9666 19.3916V22.6338L66.934 23.4829L66.9201 23.7488L69.6767 19.3916H70.639V24.5046H69.9184V21.3789L69.9324 20.7631L69.9557 20.1567L67.2037 24.5046H66.2414V19.3916H66.9666Z" fill="white"/>
<path d="M75.7103 20.054H74.0557V24.5046H73.2841V20.054H71.648V19.3916H75.7103V20.054Z" fill="white"/>
<path d="M78.7784 24.5979C78.0259 24.5979 77.4309 24.3677 76.9933 23.9074C76.5599 23.4471 76.3429 22.808 76.3429 21.9901C76.3429 21.1659 76.5443 20.5113 76.9472 20.0261C77.3528 19.5409 77.8968 19.2983 78.5791 19.2983C79.2174 19.2983 79.7223 19.5098 80.0939 19.9328C80.4663 20.3526 80.6521 20.9077 80.6521 21.5982V22.088H77.1422C77.1578 22.6883 77.3082 23.1439 77.5933 23.4549C77.8812 23.7659 78.2862 23.9214 78.8067 23.9214C79.3549 23.9214 79.8975 23.8064 80.4336 23.5762V24.2666C80.1606 24.3848 79.9024 24.4688 79.6571 24.5186C79.4152 24.5714 79.123 24.5979 78.7784 24.5979ZM78.5698 19.9468C78.1606 19.9468 77.8337 20.0805 77.5883 20.348C77.3472 20.6154 77.2046 20.9856 77.1606 21.4583H79.8244C79.8244 20.97 79.7159 20.5968 79.4989 20.3386C79.2826 20.0774 78.9727 19.9468 78.5698 19.9468Z" fill="white"/>
<path d="M85.7704 24.5046H84.9889V20.054H83.4598C83.3761 21.1613 83.2598 22.0398 83.1109 22.6898C82.9627 23.3398 82.7691 23.8157 82.5301 24.1174C82.2946 24.419 81.9939 24.5698 81.6279 24.5698C81.4613 24.5698 81.3279 24.5512 81.2287 24.5139V23.9401C81.2967 23.9587 81.374 23.968 81.4606 23.968C81.8173 23.968 82.101 23.5902 82.3116 22.8344C82.5222 22.0787 82.6818 20.9311 82.7903 19.3916H85.7704V24.5046Z" fill="white"/>
<path d="M88.1831 21.5049H89.754C91.0554 21.5049 91.7065 21.9854 91.7065 22.9464C91.7065 23.4502 91.5363 23.8359 91.1951 24.1034C90.8576 24.3708 90.3611 24.5046 89.7072 24.5046H87.4108V19.3916H88.1831V21.5049ZM88.1831 22.172V23.8561H89.6703C90.0796 23.8561 90.3923 23.7846 90.6093 23.6415C90.8264 23.4985 90.9349 23.2823 90.9349 22.9931C90.9349 22.7101 90.8342 22.5032 90.6327 22.3726C90.4342 22.2389 90.1058 22.172 89.6469 22.172H88.1831Z" fill="white"/>
<path d="M95.0816 24.5979C94.344 24.5979 93.7717 24.3708 93.366 23.9168C92.9632 23.4596 92.7618 22.8143 92.7618 21.9807C92.7618 21.1255 92.966 20.4646 93.3752 19.9981C93.7873 19.5316 94.3731 19.2983 95.1327 19.2983C95.3773 19.2983 95.622 19.3247 95.8667 19.3776C96.1121 19.4305 96.3036 19.4927 96.4433 19.5642L96.2064 20.222C96.0355 20.1536 95.8497 20.0976 95.6483 20.054C95.4468 20.0074 95.2688 19.984 95.1135 19.984C94.0788 19.984 93.5611 20.6465 93.5611 21.9714C93.5611 22.5996 93.6866 23.0817 93.9376 23.4176C94.1915 23.7535 94.5667 23.9214 95.0624 23.9214C95.4873 23.9214 95.9227 23.8297 96.3688 23.6462V24.3319C96.0284 24.5092 95.5986 24.5979 95.0816 24.5979Z" fill="white"/>
<path d="M101.018 20.054H99.3624V24.5046H98.5908V20.054H96.9546V19.3916H101.018V20.054Z" fill="white"/>
<path d="M106.159 20.6745C106.159 21.0073 106.063 21.2607 105.871 21.4349C105.681 21.606 105.415 21.721 105.071 21.7801V21.8221C105.505 21.8812 105.821 22.0087 106.02 22.2047C106.221 22.4006 106.322 22.6712 106.322 23.0164C106.322 23.4922 106.147 23.8592 105.796 24.1174C105.449 24.3755 104.941 24.5046 104.271 24.5046H102.026V19.3916H104.262C105.527 19.3916 106.159 19.8192 106.159 20.6745ZM105.55 22.9651C105.55 22.6883 105.445 22.4877 105.234 22.3633C105.026 22.2358 104.681 22.172 104.197 22.172H102.798V23.8561H104.215C105.106 23.8561 105.55 23.5591 105.55 22.9651ZM105.406 20.7492C105.406 20.5004 105.31 20.3246 105.118 20.222C104.929 20.1162 104.64 20.0634 104.253 20.0634H102.798V21.5049H104.104C104.581 21.5049 104.918 21.4458 105.113 21.3277C105.308 21.2095 105.406 21.0166 105.406 20.7492Z" fill="white"/>
<path d="M110.58 24.5046L110.426 23.7768H110.389C110.135 24.0971 109.881 24.3149 109.627 24.4299C109.376 24.5419 109.061 24.5979 108.683 24.5979C108.178 24.5979 107.781 24.4672 107.493 24.206C107.208 23.9447 107.065 23.5731 107.065 23.091C107.065 22.0585 107.888 21.5174 109.534 21.4676L110.398 21.4396V21.1224C110.398 20.7212 110.312 20.4257 110.138 20.236C109.968 20.0431 109.693 19.9468 109.315 19.9468C108.891 19.9468 108.41 20.0774 107.874 20.3386L107.637 19.7462C107.888 19.6093 108.162 19.502 108.46 19.4243C108.761 19.3465 109.061 19.3077 109.361 19.3077C109.969 19.3077 110.419 19.4429 110.71 19.7135C111.004 19.984 111.152 20.418 111.152 21.0151V24.5046H110.58ZM108.837 23.9587C109.317 23.9587 109.693 23.8265 109.966 23.5622C110.242 23.2979 110.38 22.9277 110.38 22.4519V21.9901L109.608 22.0227C108.995 22.0445 108.552 22.1409 108.279 22.3119C108.009 22.4799 107.874 22.7427 107.874 23.1004C107.874 23.3803 107.958 23.5933 108.125 23.7395C108.296 23.8856 108.533 23.9587 108.837 23.9587Z" fill="white"/>
<path d="M46.2034 38.2249L43.8977 32.1789H43.8605C43.904 32.6579 43.9257 33.227 43.9257 33.8863V38.2249H43.1958V31.4045H44.3859L46.5382 37.0306H46.5753L48.7462 31.4045H49.927V38.2249H49.1367V33.8304C49.1367 33.3265 49.1584 32.7792 49.2018 32.1883H49.1646L46.8403 38.2249H46.2034Z" fill="white"/>
<path d="M56.0771 35.6637C56.0771 36.4972 55.8679 37.1488 55.4495 37.6184C55.0311 38.085 54.4532 38.3182 53.7156 38.3182C53.26 38.3182 52.8556 38.2109 52.5023 37.9963C52.149 37.7817 51.8763 37.4738 51.6842 37.0726C51.492 36.6714 51.3959 36.2018 51.3959 35.6637C51.3959 34.8302 51.6036 34.1818 52.0188 33.7184C52.4342 33.2519 53.0105 33.0186 53.7481 33.0186C54.4609 33.0186 55.0265 33.2565 55.4449 33.7324C55.8664 34.2083 56.0771 34.852 56.0771 35.6637ZM52.1955 35.6637C52.1955 36.3168 52.3256 36.8144 52.586 37.1566C52.8463 37.4987 53.229 37.6698 53.7342 37.6698C54.2393 37.6698 54.6221 37.5002 54.8824 37.1613C55.1458 36.8192 55.2775 36.32 55.2775 35.6637C55.2775 35.0137 55.1458 34.5208 54.8824 34.1849C54.6221 33.8459 54.2362 33.6764 53.7249 33.6764C53.2197 33.6764 52.8385 33.8428 52.5813 34.1756C52.3241 34.5083 52.1955 35.0044 52.1955 35.6637Z" fill="white"/>
<path d="M59.4705 38.3182C58.733 38.3182 58.1612 38.0911 57.7552 37.6371C57.3524 37.1799 57.1509 36.5346 57.1509 35.701C57.1509 34.8458 57.3554 34.1849 57.7645 33.7184C58.1767 33.2519 58.7624 33.0186 59.5217 33.0186C59.7665 33.0186 60.0113 33.0451 60.2561 33.098C60.501 33.1508 60.6932 33.213 60.8326 33.2846L60.5955 33.9423C60.4251 33.8739 60.2391 33.8179 60.0377 33.7744C59.8362 33.7277 59.6581 33.7044 59.5031 33.7044C58.468 33.7044 57.9504 34.3668 57.9504 35.6917C57.9504 36.32 58.076 36.802 58.327 37.1379C58.5811 37.4738 58.9561 37.6417 59.452 37.6417C59.8765 37.6417 60.312 37.55 60.7582 37.3665V38.0523C60.4173 38.2295 59.9881 38.3182 59.4705 38.3182Z" fill="white"/>
<path d="M64.9419 33.1119H65.7879L63.5892 35.5798L65.9693 38.2249H65.0675L62.7432 35.6358V38.2249H61.9715V33.1119H62.7432V35.5984L64.9419 33.1119Z" fill="white"/>
<path d="M71.0502 34.3948C71.0502 34.7276 70.9541 34.9811 70.762 35.1553C70.573 35.3263 70.3064 35.4413 69.9624 35.5004V35.5425C70.3963 35.6016 70.7124 35.7291 70.9108 35.925C71.1118 36.1209 71.2132 36.3915 71.2132 36.7367C71.2132 37.2125 71.0378 37.5795 70.6876 37.8377C70.3405 38.0958 69.8323 38.2249 69.1629 38.2249H66.9176V33.1119H69.1536C70.418 33.1119 71.0502 33.5395 71.0502 34.3948ZM70.4413 36.6854C70.4413 36.4086 70.3359 36.208 70.1251 36.0836C69.9175 35.9561 69.5719 35.8923 69.0885 35.8923H67.6893V37.5765H69.1071C69.9965 37.5765 70.4413 37.2794 70.4413 36.6854ZM70.2972 34.4695C70.2972 34.2207 70.2011 34.045 70.0089 33.9423C69.8199 33.8366 69.5316 33.7837 69.1443 33.7837H67.6893V35.2252H68.9956C69.4728 35.2252 69.809 35.1662 70.0043 35.048C70.1995 34.9298 70.2972 34.7369 70.2972 34.4695Z" fill="white"/>
<path d="M73.1097 35.2252H74.4997C75.1472 35.2252 75.6259 35.3465 75.9358 35.5891C76.2486 35.8286 76.4053 36.1878 76.4053 36.6668C76.4053 37.1799 76.2394 37.5686 75.9082 37.833C75.5798 38.0943 75.0947 38.2249 74.4529 38.2249H72.338V33.1119H73.1097V35.2252ZM78.0323 38.2249H77.2606V33.1119H78.0323V38.2249ZM73.1097 35.8923V37.5765H74.416C75.2337 37.5765 75.6429 37.2887 75.6429 36.7134C75.6429 36.4273 75.5486 36.2189 75.3593 36.0883C75.1706 35.9577 74.8479 35.8923 74.3926 35.8923H73.1097Z" fill="white"/>
</svg>
