<svg width="20" height="20" viewBox="0 0 20 20" fill="none" xmlns="http://www.w3.org/2000/svg">
<path fill-rule="evenodd" clip-rule="evenodd" d="M3.75 13.125V12.5H2.5V13.125C2.5 15.5412 4.45875 17.5 6.875 17.5H8.75V16.25H6.875C5.14911 16.25 3.75 14.8509 3.75 13.125ZM15 6.875V7.5H16.25V6.875C16.25 4.45875 14.2912 2.5 11.875 2.5H10V3.75H11.875C12.7038 3.75 13.4987 4.07924 14.0847 4.66529C14.6708 5.25134 15 6.0462 15 6.875ZM6.875 6.875H3.125C2.08947 6.875 1.25 7.71447 1.25 8.75V10H2.5V8.75C2.5 8.40482 2.77982 8.125 3.125 8.125H6.875C7.22018 8.125 7.5 8.40482 7.5 8.75V10H8.75V8.75C8.75 7.71447 7.91053 6.875 6.875 6.875V6.875ZM5 6.25C6.38071 6.25 7.5 5.13071 7.5 3.75C7.5 2.36929 6.38071 1.25 5 1.25C3.61929 1.25 2.5 2.36929 2.5 3.75C2.5 5.13071 3.61929 6.25 5 6.25ZM5 2.5C5.69036 2.5 6.25 3.05964 6.25 3.75C6.25 4.44036 5.69036 5 5 5C4.30964 5 3.75 4.44036 3.75 3.75C3.75 3.05964 4.30964 2.5 5 2.5ZM16.875 15.625H13.125C12.0895 15.625 11.25 16.4645 11.25 17.5V18.75H12.5V17.5C12.5 17.1548 12.7798 16.875 13.125 16.875H16.875C17.2202 16.875 17.5 17.1548 17.5 17.5V18.75H18.75V17.5C18.75 16.4645 17.9105 15.625 16.875 15.625V15.625ZM12.5 12.5C12.5 13.8807 13.6193 15 15 15C16.3807 15 17.5 13.8807 17.5 12.5C17.5 11.1193 16.3807 10 15 10C13.6193 10 12.5 11.1193 12.5 12.5ZM16.25 12.5C16.25 13.1904 15.6904 13.75 15 13.75C14.3096 13.75 13.75 13.1904 13.75 12.5C13.75 11.8096 14.3096 11.25 15 11.25C15.6904 11.25 16.25 11.8096 16.25 12.5Z" fill="#302525"/>
</svg>
