<svg width="24" height="24" viewBox="0 0 24 24" fill="none" xmlns="http://www.w3.org/2000/svg">
<path fill-rule="evenodd" clip-rule="evenodd" d="M17.333 7.16132C17.333 10.0066 14.9356 12.3211 11.9864 12.3211C9.03785 12.3211 6.63982 10.0066 6.63982 7.16132C6.63982 4.31509 9.03785 2 11.9864 2C14.9356 2 17.333 4.31509 17.333 7.16132ZM14.2002 7.16132C14.2002 5.98293 13.2072 5.02472 11.9864 5.02472C10.7666 5.02472 9.77265 5.98293 9.77265 7.16132C9.77265 8.33878 10.7666 9.29761 11.9864 9.29761C13.2072 9.29761 14.2002 8.33878 14.2002 7.16132Z" fill="#D70A3F"/>
<path d="M17.268 15.2925C16.3012 15.8786 15.2516 16.2943 14.1633 16.5336L17.1522 19.419C17.7645 20.0088 17.7645 20.9667 17.1522 21.5572C16.5405 22.1476 15.5491 22.1476 14.9381 21.5572L11.9994 18.7218L9.06335 21.5572C8.7572 21.8521 8.35604 21.9997 7.95486 21.9997C7.55436 21.9997 7.15383 21.8521 6.84767 21.5572C6.23602 20.9667 6.23602 20.0095 6.84702 19.419L9.83624 16.5336C8.74792 16.2943 7.6983 15.878 6.73156 15.2925C5.99992 14.8472 5.78014 13.9143 6.24112 13.2075C6.70082 12.4997 7.66759 12.2866 8.40051 12.7319C10.5893 14.061 13.409 14.0613 15.599 12.7319C16.332 12.2866 17.2984 12.4997 17.7591 13.2075C18.22 13.9137 17.9996 14.8472 17.268 15.2925Z" fill="#D70A3F"/>
</svg>
