<svg width="24" height="24" viewBox="0 0 24 24" fill="none" xmlns="http://www.w3.org/2000/svg">
<path fill-rule="evenodd" clip-rule="evenodd" d="M15.2477 16.11L16.9277 14.43C17.39 13.9735 18.078 13.8323 18.6827 14.07L20.7302 14.8875C21.3418 15.1358 21.7442 15.7275 21.7502 16.3875V20.1375C21.7467 20.5812 21.5622 21.0043 21.2393 21.3087C20.9165 21.6131 20.4834 21.7725 20.0402 21.75C5.69273 20.8575 2.79773 8.70753 2.25023 4.05753C2.19882 3.59566 2.34732 3.13384 2.65828 2.78848C2.96924 2.44313 3.41301 2.24718 3.87773 2.25003H7.50023C8.16156 2.25199 8.7553 2.65573 9.00023 3.27003L9.81773 5.31753C10.0634 5.92023 9.92461 6.61146 9.46523 7.07253L7.78523 8.75253C7.78523 8.75253 8.75273 15.3 15.2477 16.11Z" fill="#D70A3F"/>
</svg>
