<svg width="17" height="16" viewBox="0 0 17 16" fill="none" xmlns="http://www.w3.org/2000/svg">
<path fill-rule="evenodd" clip-rule="evenodd" d="M1.5 8C1.5 4.1 4.6 1 8.5 1C12.4 1 15.5 4.1 15.5 8C15.5 11.9 12.4 15 8.5 15C4.6 15 1.5 11.9 1.5 8ZM9.3 11.8C9.3 12.2418 8.94182 12.6 8.5 12.6C8.05817 12.6 7.7 12.2418 7.7 11.8C7.7 11.3582 8.05817 11 8.5 11C8.94182 11 9.3 11.3582 9.3 11.8ZM9 4H8.3C7 4 6 5 6 6.2V6.4H7V6.2C7 5.6 7.6 5 8.3 5H9.1C9.8 5 10.3 5.6 10.3 6.2C10.3 6.8 9.7 7.5 9 7.5H8V9.7H9V8.5C10.2 8.5 11.2 7.5 11.2 6.3C11.2 5.1 10.2 4 9 4ZM2.5 8C2.5 11.3 5.2 14 8.5 14C11.8 14 14.5 11.3 14.5 8C14.5 4.7 11.8 2 8.5 2C5.2 2 2.5 4.7 2.5 8Z" fill="#302525"/>
</svg>
