<svg width="24" height="24" viewBox="0 0 24 24" fill="none" xmlns="http://www.w3.org/2000/svg">
<path fill-rule="evenodd" clip-rule="evenodd" d="M14.71 14H15.5L20.49 19L19 20.49L14 15.5V14.71L13.73 14.43C12.59 15.41 11.11 16 9.5 16C5.91 16 3 13.09 3 9.5C3 5.91 5.91 3 9.5 3C13.09 3 16 5.91 16 9.5C16 11.11 15.41 12.59 14.43 13.73L14.71 14ZM5.00013 9.49998C5.00013 11.99 7.01013 14 9.50013 14C11.9901 14 14.0001 11.99 14.0001 9.49998C14.0001 7.00998 11.9901 4.99998 9.50013 4.99998C7.01013 4.99998 5.00013 7.00998 5.00013 9.49998Z" fill="#565656"/>
</svg>
