<svg width="16" height="16" viewBox="0 0 16 16" fill="none" xmlns="http://www.w3.org/2000/svg">
<path fill-rule="evenodd" clip-rule="evenodd" d="M15 4H12.9C12.7 2.9 11.7 2 10.5 2C9.3 2 8.3 2.9 8.1 4H1V5H8.1C8.3 6.1 9.3 7 10.5 7C11.7 7 12.7 6.1 12.9 5H15V4ZM10.5 6C9.7 6 9 5.3 9 4.5C9 3.7 9.7 3 10.5 3C11.3 3 12 3.7 12 4.5C12 5.3 11.3 6 10.5 6ZM1 12H3.1C3.3 13.1 4.3 14 5.5 14C6.7 14 7.7 13.1 7.9 12H15V11H7.9C7.7 9.9 6.7 9 5.5 9C4.3 9 3.3 9.9 3.1 11H1V12ZM5.5 10C6.3 10 7 10.7 7 11.5C7 12.3 6.3 13 5.5 13C4.7 13 4 12.3 4 11.5C4 10.7 4.7 10 5.5 10Z" fill="#FF0F43"/>
</svg>
