<svg width="20" height="20" viewBox="0 0 20 20" fill="none" xmlns="http://www.w3.org/2000/svg">
<path fill-rule="evenodd" clip-rule="evenodd" d="M2.5 1.25V2.5H5.625V6.875C5.625 9.29125 7.58375 11.25 10 11.25C12.4162 11.25 14.375 9.29125 14.375 6.875V2.5H17.5V1.25H2.5ZM6.875 2.5H13.125V4.375H6.875V2.5ZM6.875 6.875C6.875 8.60089 8.27411 10 10 10C11.7259 10 13.125 8.60089 13.125 6.875V5.625H6.875V6.875ZM16.25 18.75H15V16.875C14.9979 15.15 13.6 13.7521 11.875 13.75H8.125C6.39997 13.7521 5.00207 15.15 5 16.875V18.75H3.75V16.875C3.75276 14.4599 5.7099 12.5028 8.125 12.5H11.875C14.2901 12.5028 16.2472 14.4599 16.25 16.875V18.75ZM2.5 4.375C2.5 4.02982 2.77982 3.75 3.125 3.75C3.47018 3.75 3.75 4.02982 3.75 4.375V10H2.5V4.375Z" fill="#302525"/>
</svg>
