<svg width="24" height="24" viewBox="0 0 24 24" fill="none" xmlns="http://www.w3.org/2000/svg">
<path fill-rule="evenodd" clip-rule="evenodd" d="M3.08702 11.4217C7.91884 9.31656 11.1408 7.92872 12.7529 7.25819C17.3559 5.34367 18.3123 5.0111 18.9357 5.00012C19.0728 4.9977 19.3794 5.03168 19.578 5.19282C19.7457 5.32888 19.7918 5.51268 19.8139 5.64168C19.836 5.77068 19.8635 6.06454 19.8416 6.29416C19.5922 8.91499 18.5129 15.275 17.9638 18.2104C17.7314 19.4525 17.274 19.8689 16.8311 19.9097C15.8685 19.9983 15.1377 19.2736 14.2054 18.6625C12.7466 17.7063 11.9225 17.111 10.5065 16.1779C8.87009 15.0995 9.93092 14.5068 10.8635 13.5382C11.1076 13.2847 15.3485 9.42727 15.4305 9.07735C15.4408 9.03358 15.4503 8.87045 15.3534 8.78431C15.2565 8.69817 15.1135 8.72763 15.0102 8.75106C14.8639 8.78426 12.5335 10.3246 8.01899 13.372C7.35751 13.8262 6.75836 14.0475 6.22154 14.0359C5.62974 14.0232 4.49136 13.7013 3.64509 13.4262C2.6071 13.0888 1.78213 12.9104 1.85397 12.3374C1.89139 12.039 2.3024 11.7337 3.08702 11.4217Z" fill="#D70A3F"/>
</svg>
