<svg width="16" height="16" viewBox="0 0 16 16" fill="none" xmlns="http://www.w3.org/2000/svg">
<path fill-rule="evenodd" clip-rule="evenodd" d="M1 8C1 4.1 4.1 1 8 1C11.9 1 15 4.1 15 8C15 11.9 11.9 15 8 15C4.1 15 1 11.9 1 8ZM8 3C6.6 3 5.5 4.1 5.5 5.5C5.5 6.9 6.6 8 8 8C9.4 8 10.5 6.9 10.5 5.5C10.5 4.1 9.4 3 8 3ZM8 7C7.2 7 6.5 6.3 6.5 5.5C6.5 4.7 7.2 4 8 4C8.8 4 9.5 4.7 9.5 5.5C9.5 6.3 8.8 7 8 7ZM5 13.2V11.7C5 10.8 5.6 10.1 6.5 10H9.5C10.4 10.1 11 10.8 11 11.7V13.2C9.1 14.3 6.9 14.3 5 13.2ZM12 11.2V12V12.5C12.0708 12.4292 12.1417 12.3709 12.2081 12.3162C12.3292 12.2166 12.4354 12.1292 12.5 12C14.7 9.5 14.5 5.7 12 3.5C9.5 1.3 5.7 1.5 3.5 4C1.3 6.5 1.5 10.3 4 12.5V11.7C4 10.3 5.1 9.1 6.5 9H9.5C10.9 9.1 12 10.3 12 11.2Z" fill="#302525"/>
</svg>
