<svg width="16" height="16" viewBox="0 0 16 16" fill="none" xmlns="http://www.w3.org/2000/svg">
<path fill-rule="evenodd" clip-rule="evenodd" d="M13.6515 6C13.2927 5.99981 12.9489 6.14397 12.6975 6.4L12.501 6.601L12.3025 6.3995C12.051 6.14371 11.7072 5.99965 11.3485 5.99965C10.9898 5.99965 10.646 6.14371 10.3945 6.3995C9.86814 6.93634 9.86814 7.79566 10.3945 8.3325L12.501 10.4645L14.6055 8.3325C15.1319 7.79566 15.1319 6.93634 14.6055 6.3995C14.354 6.14365 14.0102 5.99968 13.6515 6V6ZM1 15H2V12.5C2.00165 11.12 3.11997 10.0017 4.5 10H7.5C8.88003 10.0017 9.99835 11.12 10 12.5V15H11V12.5C10.9978 10.5679 9.43208 9.0022 7.5 9H4.5C2.56792 9.0022 1.0022 10.5679 1 12.5V15ZM6 2C7.38071 2 8.5 3.11929 8.5 4.5C8.5 5.88071 7.38071 7 6 7C4.61929 7 3.5 5.88071 3.5 4.5C3.5 3.11929 4.61929 2 6 2V2ZM6 1C4.067 1 2.5 2.567 2.5 4.5C2.5 6.433 4.067 8 6 8C7.933 8 9.5 6.433 9.5 4.5C9.5 2.567 7.933 1 6 1Z" fill="#3F6FD1"/>
</svg>
