<svg width="24" height="24" viewBox="0 0 24 24" fill="none" xmlns="http://www.w3.org/2000/svg">
<path fill-rule="evenodd" clip-rule="evenodd" d="M20.5764 7.34956C20.7099 6.92679 20.5764 6.61931 19.9855 6.61931H18.0219C17.5263 6.61931 17.2975 6.88835 17.1641 7.17661C17.1641 7.17661 16.1537 9.63639 14.743 11.2314C14.2855 11.6926 14.0758 11.8464 13.828 11.8464C13.6946 11.8464 13.523 11.6926 13.523 11.2698V7.33035C13.523 6.8307 13.3705 6.6001 12.9511 6.6001H9.86281C9.5578 6.6001 9.36717 6.8307 9.36717 7.06131C9.36717 7.54173 10.0725 7.65704 10.1488 9.00223V11.9232C10.1488 12.5574 10.0344 12.6727 9.78656 12.6727C9.11934 12.6727 7.49895 10.1937 6.52672 7.36878C6.33609 6.81149 6.14546 6.6001 5.64981 6.6001H3.66722C3.09532 6.6001 3 6.86914 3 7.15739C3 7.67625 3.66722 10.2898 6.10733 13.7489C7.72772 16.1126 10.0344 17.3809 12.1123 17.3809C13.3705 17.3809 13.523 17.0926 13.523 16.6122V14.825C13.523 14.2485 13.6374 14.1524 14.0377 14.1524C14.3236 14.1524 14.8384 14.3061 16.0012 15.44C17.3357 16.7852 17.5644 17.4001 18.3079 17.4001H20.2714C20.8433 17.4001 21.1102 17.1118 20.9577 16.5545C20.7861 15.9973 20.138 15.1901 19.2992 14.2293C18.8417 13.6912 18.1554 13.0955 17.9457 12.8072C17.6597 12.4229 17.736 12.2691 17.9457 11.9232C17.9266 11.9232 20.3286 8.50259 20.5764 7.34956Z" fill="#D70A3F"/>
</svg>
