<svg width="24" height="24" viewBox="0 0 24 24" fill="none" xmlns="http://www.w3.org/2000/svg">
<path fill-rule="evenodd" clip-rule="evenodd" d="M22 12C22 17.5228 17.5228 22 12 22C10.1661 22 8.44744 21.5063 6.96976 20.6446L2 22L3.35539 17.0302C2.49368 15.5526 2 13.8339 2 12C2 6.47715 6.47715 2 12 2C17.5228 2 22 6.47715 22 12ZM9.15456 7.00617C9.34437 7.01392 9.55455 7.02287 9.75434 7.46453C9.89091 7.76688 10.1209 8.33082 10.3039 8.77976C10.4384 9.10967 10.5477 9.37761 10.5759 9.43379C10.6426 9.56643 10.687 9.72134 10.5981 9.89852C10.5849 9.92472 10.5727 9.94947 10.5611 9.97312C10.4942 10.109 10.4451 10.2088 10.3319 10.3408C10.2871 10.3928 10.2408 10.4489 10.1944 10.505C10.1029 10.6158 10.0114 10.7265 9.93196 10.8055C9.79829 10.9377 9.65944 11.0813 9.81488 11.3468C9.97052 11.6123 10.5054 12.4807 11.2977 13.1838C12.1489 13.9392 12.8884 14.2587 13.2639 14.4209C13.3377 14.4528 13.3974 14.4786 13.4411 14.5004C13.7078 14.6331 13.8633 14.611 14.0187 14.4338C14.1744 14.2568 14.6848 13.6595 14.8624 13.394C15.0403 13.1285 15.2179 13.1727 15.4622 13.2612C15.7066 13.3497 17.017 13.9916 17.2835 14.1242C17.3355 14.15 17.384 14.1733 17.429 14.1949C17.6152 14.2843 17.7409 14.3446 17.7946 14.4338C17.8611 14.5448 17.8611 15.0755 17.639 15.6949C17.417 16.3144 16.3287 16.9119 15.84 16.9561C15.793 16.9603 15.7462 16.9658 15.6982 16.9714C15.2464 17.0242 14.6762 17.0909 12.6415 16.2923C10.1371 15.3094 8.486 12.8733 8.14532 12.3707C8.11748 12.3296 8.09834 12.3013 8.08827 12.288L8.08503 12.2836C7.94045 12.0912 7 10.8395 7 9.54436C7 8.32265 7.60331 7.68227 7.88092 7.3876L7.89488 7.37278C7.90854 7.35826 7.9213 7.34464 7.93303 7.33189C8.17718 7.06642 8.46588 7 8.64369 7L8.67253 7C8.84048 6.99998 9.00754 6.99996 9.15456 7.00617Z" fill="#D70A3F"/>
</svg>
